<?xml version="1.0" standalone="no"?>
<!DOCTYPE svg PUBLIC "-//W3C//DTD SVG 20010904//EN"
 "http://www.w3.org/TR/2001/REC-SVG-20010904/DTD/svg10.dtd">
<svg version="1.0" xmlns="http://www.w3.org/2000/svg"
 width="700.000000pt" height="700.000000pt" viewBox="0 0 700.000000 700.000000"
 preserveAspectRatio="xMidYMid meet">
<metadata>
Created by potrace 1.14, written by Peter Selinger 2001-2017
</metadata>
<g transform="translate(0.000000,700.000000) scale(0.100000,-0.100000)"
fill="#000000" stroke="none">
<path d="M5000 6574 c-75 -16 -119 -30 -127 -41 -9 -11 -13 -55 -13 -130 0
-99 2 -113 17 -113 9 0 67 10 130 21 l113 21 0 134 c0 74 -1 134 -2 133 -2 -1
-55 -12 -118 -25z"/>
<path d="M4000 6409 c-36 -5 -80 -11 -97 -14 l-33 -6 0 -119 0 -120 28 0 c15
0 73 5 130 12 l102 12 0 123 0 123 -32 -1 c-18 -1 -62 -5 -98 -10z"/>
<path d="M5645 6380 l-120 -26 -3 -122 -3 -122 33 7 c18 3 75 16 127 27 l95
21 -3 120 c-1 66 -3 120 -4 121 -1 1 -56 -11 -122 -26z"/>
<path d="M3638 6367 l-98 -10 0 -125 0 -124 33 5 c17 3 73 9 122 13 50 3 96
11 103 16 8 7 12 45 12 124 l0 114 -37 -2 c-21 0 -82 -6 -135 -11z"/>
<path d="M2953 6313 l-73 -4 0 -119 0 -120 53 0 c30 0 88 3 130 6 l77 7 0 118
0 119 -57 -2 c-32 -1 -91 -4 -130 -5z"/>
<path d="M2210 6170 l0 -120 130 0 130 0 0 120 0 120 -130 0 -130 0 0 -120z"/>
<path d="M4996 6249 c-150 -28 -136 -13 -136 -140 0 -127 -16 -117 150 -91
l105 17 3 118 c2 90 0 117 -10 116 -7 -1 -57 -9 -112 -20z"/>
<path d="M4320 6146 l-445 -62 -3 -276 -2 -275 -168 -7 c-92 -3 -222 -9 -289
-13 l-123 -6 0 112 0 111 43 0 c23 0 79 3 125 7 l82 6 0 155 0 155 -72 -6
c-40 -3 -265 -16 -500 -29 l-428 -22 0 -263 0 -263 -333 -2 -332 -3 -3 -132
-3 -133 131 0 130 0 0 -105 0 -105 -125 0 -125 0 0 -135 0 -135 165 0 165 0 0
-425 0 -425 125 0 125 0 0 -105 0 -105 -125 0 -125 0 0 -165 0 -165 125 0 125
0 0 -100 0 -100 -125 0 -125 0 0 -342 c0 -189 -3 -380 -7 -425 l-6 -83 -161
-2 -161 -3 -3 -268 -2 -267 130 0 130 0 0 -105 0 -105 205 0 205 0 0 -265 0
-265 28 0 c15 0 160 -7 322 -15 162 -8 303 -15 313 -15 15 0 17 11 17 101 l0
102 103 -7 c56 -4 112 -10 125 -13 l22 -5 0 171 0 171 24 0 c32 0 282 -19 333
-26 l43 -5 2 -272 3 -271 450 -63 c248 -34 456 -62 463 -62 9 -1 12 63 12 285
l0 287 84 -7 c150 -12 405 -8 500 9 212 37 360 110 492 240 76 76 97 105 137
185 159 324 147 884 -26 1171 -51 85 -69 92 -276 96 -97 2 -191 6 -208 9 l-33
5 0 138 c0 99 -4 141 -12 148 -18 13 -203 78 -323 112 l-100 29 -3 64 c-4 100
3 111 100 147 286 108 461 220 640 409 80 85 118 139 163 233 58 122 70 195
70 434 0 247 -16 328 -91 483 -101 208 -285 322 -595 368 -92 13 -153 15 -316
11 -199 -6 -203 -6 -203 14 0 30 -21 33 -145 17 l-115 -14 0 111 0 112 125 18
125 18 0 144 c0 108 -3 143 -12 142 -7 -1 -213 -29 -458 -63z m0 -476 l0 -250
28 0 c15 0 72 7 127 15 128 19 125 19 125 -6 0 -21 1 -22 153 -13 83 5 240 9
347 9 217 -1 307 -16 434 -74 64 -29 156 -109 156 -136 0 -8 -20 -15 -52 -19
-29 -4 -68 -9 -85 -12 l-33 -6 0 -119 0 -119 28 0 c15 1 73 7 129 14 l103 13
6 -33 c7 -38 1 -340 -7 -348 -3 -3 -62 -11 -132 -17 l-127 -12 0 -122 0 -123
65 6 c42 3 65 1 65 -6 0 -15 -164 -166 -235 -217 -89 -64 -177 -109 -299 -155
-189 -71 -238 -105 -277 -192 -21 -48 -23 -71 -27 -245 -2 -106 -2 -193 0
-193 34 0 248 -47 328 -73 l105 -33 3 -171 c2 -153 4 -172 20 -177 9 -2 130
-8 267 -11 138 -4 257 -11 266 -16 22 -11 75 -175 89 -277 18 -124 8 -404 -19
-509 -60 -240 -198 -377 -447 -444 -104 -28 -353 -35 -636 -17 l-208 14 0
-278 0 -278 -22 5 c-19 4 -453 65 -464 65 -2 0 -4 126 -4 280 0 260 -1 280
-17 280 -10 0 -187 14 -393 30 -206 16 -387 30 -402 30 l-28 0 0 -167 0 -168
-55 3 -55 4 0 39 0 39 -130 0 -130 0 0 -105 0 -105 55 0 55 0 0 -36 c0 -36 -1
-36 -31 -30 -17 3 -69 6 -115 6 l-84 0 0 270 0 270 -205 0 -205 0 0 25 c0 24
3 25 60 25 l60 0 0 100 0 100 -130 0 c-123 0 -130 -1 -130 -20 0 -18 -7 -20
-55 -20 l-55 0 0 50 0 50 165 0 165 0 0 425 0 425 125 0 125 0 0 590 0 590
-125 0 -125 0 0 185 0 184 118 3 117 3 0 100 0 100 -117 3 -118 3 0 134 0 135
-40 0 -40 0 0 155 0 155 205 0 205 0 0 269 0 269 118 6 c64 4 134 8 155 10
l37 4 0 -264 0 -264 53 1 c28 0 257 10 507 22 l455 22 3 283 c1 155 3 282 5
283 15 5 170 27 195 28 l32 1 0 -250z"/>
<path d="M2923 5223 l-43 -4 0 -106 0 -106 92 7 c50 3 108 6 130 6 l38 0 0
105 0 105 -87 -2 c-49 -1 -107 -3 -130 -5z"/>
<path d="M2550 5110 l0 -100 125 0 125 0 0 100 0 100 -125 0 -125 0 0 -100z"/>
<path d="M4060 5098 c-260 -10 -761 -38 -830 -46 l-55 -7 -3 -712 -2 -713 122
0 c215 0 669 20 799 36 481 57 758 253 850 600 25 94 30 331 10 429 -29 138
-120 264 -237 327 -76 41 -216 78 -318 84 -50 3 -102 6 -116 8 -14 1 -113 -1
-220 -6z m395 -228 c142 -24 237 -91 270 -191 23 -67 26 -276 6 -359 -44 -184
-166 -309 -371 -381 -165 -59 -268 -70 -822 -94 l-148 -7 0 505 0 505 158 7
c86 4 270 13 407 20 250 13 406 11 500 -5z"/>
<path d="M2780 4300 l0 -100 130 0 130 0 0 100 0 100 -130 0 -130 0 0 -100z"/>
<path d="M2750 3500 l0 -100 130 0 130 0 0 100 0 100 -130 0 -130 0 0 -100z"/>
<path d="M3170 2645 l0 -725 190 0 190 0 0 -69 0 -68 38 -7 c20 -3 78 -6 129
-6 l92 0 3 67 3 68 150 -3 c83 -1 174 -5 203 -8 l52 -6 0 -73 0 -73 48 -6 c26
-3 84 -8 130 -12 l82 -6 0 94 0 94 105 27 c273 67 421 208 475 454 27 121 26
220 -4 334 -124 476 -373 606 -1216 639 -129 5 -333 10 -452 10 l-218 0 0
-725z m875 484 c445 -32 648 -109 734 -277 33 -64 81 -241 81 -296 0 -72 -32
-195 -64 -250 -48 -83 -139 -135 -291 -167 -107 -23 -361 -25 -825 -6 l-285
12 -3 504 -2 504 257 -7 c142 -4 321 -11 398 -17z"/>
<path d="M5525 2371 c-3 -2 -5 -58 -5 -123 0 -87 3 -118 13 -118 6 -1 61 -7
122 -14 60 -8 113 -12 117 -10 7 5 12 243 6 245 -20 5 -250 24 -253 20z"/>
<path d="M5690 6084 c-36 -8 -89 -19 -117 -25 l-53 -10 0 -120 0 -120 43 6
c23 4 80 14 127 24 l85 17 3 122 c2 94 0 122 -10 121 -7 -1 -42 -7 -78 -15z"/>
<path d="M5318 6013 l-128 -25 0 -117 0 -117 130 20 130 20 0 123 c0 68 -1
122 -2 122 -2 -1 -60 -13 -130 -26z"/>
<path d="M1872 5628 l3 -103 133 -3 132 -3 0 106 0 105 -135 0 -136 0 3 -102z"/>
<path d="M2210 5625 l0 -105 130 0 130 0 0 105 0 105 -130 0 -130 0 0 -105z"/>
<path d="M880 5399 l0 -106 83 -6 c45 -4 103 -7 130 -7 l47 0 0 104 0 105 -52
5 c-29 3 -88 7 -130 8 l-78 3 0 -106z"/>
<path d="M1210 5375 l0 -105 130 0 130 0 0 105 0 105 -130 0 -130 0 0 -105z"/>
<path d="M1540 4835 l0 -105 130 0 130 0 0 105 0 105 -130 0 -130 0 0 -105z"/>
<path d="M880 4580 l0 -110 130 0 130 0 0 110 0 110 -130 0 -130 0 0 -110z"/>
<path d="M1540 4565 l0 -105 130 0 130 0 0 105 0 105 -130 0 -130 0 0 -105z"/>
<path d="M1877 4663 c-4 -3 -7 -51 -7 -105 l0 -98 135 0 135 0 0 105 0 105
-128 0 c-71 0 -132 -3 -135 -7z"/>
<path d="M1872 4298 l3 -103 133 -3 132 -3 0 106 0 105 -135 0 -136 0 3 -102z"/>
<path d="M1210 4035 l0 -105 130 0 130 0 0 105 0 105 -130 0 -130 0 0 -105z"/>
<path d="M1540 4035 l0 -105 130 0 130 0 0 105 0 105 -130 0 -130 0 0 -105z"/>
<path d="M1540 3765 l0 -105 130 0 130 0 0 105 0 105 -130 0 -130 0 0 -105z"/>
<path d="M1872 3768 l3 -103 133 -3 132 -3 0 106 0 105 -135 0 -136 0 3 -102z"/>
<path d="M1210 3495 l0 -105 130 0 130 0 0 105 0 105 -130 0 -130 0 0 -105z"/>
<path d="M1870 3500 l0 -100 135 0 135 0 0 100 0 100 -135 0 -135 0 0 -100z"/>
<path d="M1540 3235 l0 -105 130 0 130 0 0 105 0 105 -130 0 -130 0 0 -105z"/>
<path d="M1876 3288 c-3 -29 -6 -77 -6 -105 l0 -53 135 0 135 0 0 105 0 105
-129 0 -128 0 -7 -52z"/>
<path d="M1210 2965 l0 -105 130 0 130 0 0 105 0 105 -130 0 -130 0 0 -105z"/>
<path d="M1877 2803 c-4 -3 -7 -51 -7 -105 l0 -98 135 0 135 0 0 105 0 105
-128 0 c-71 0 -132 -3 -135 -7z"/>
<path d="M880 2690 l0 -110 130 0 131 0 -3 108 -3 107 -127 3 -128 3 0 -111z"/>
<path d="M1210 2695 l0 -105 130 0 130 0 0 105 0 105 -130 0 -130 0 0 -105z"/>
<path d="M1540 2435 l0 -105 130 0 130 0 0 105 0 105 -130 0 -130 0 0 -105z"/>
<path d="M1872 2438 l3 -103 133 -3 132 -3 0 106 0 105 -135 0 -136 0 3 -102z"/>
<path d="M1210 2425 l0 -105 130 0 130 0 0 105 0 105 -130 0 -130 0 0 -105z"/>
<path d="M1210 2160 l0 -110 130 0 130 0 0 110 0 110 -130 0 -130 0 0 -110z"/>
<path d="M1547 2004 c-4 -4 -7 -52 -7 -106 l0 -98 135 0 136 0 -3 103 -3 102
-126 3 c-69 1 -128 -1 -132 -4z"/>
<path d="M1540 1635 l0 -105 130 0 130 0 0 105 0 105 -130 0 -130 0 0 -105z"/>
<path d="M928 1713 l-48 -4 0 -109 0 -109 98 5 c53 3 112 7 130 10 l32 5 0
104 0 105 -82 -2 c-46 -1 -104 -3 -130 -5z"/>
<path d="M1870 1375 l0 -105 135 0 135 0 0 105 0 105 -135 0 -135 0 0 -105z"/>
<path d="M2210 1375 l0 -105 130 0 130 0 0 105 0 105 -130 0 -130 0 0 -105z"/>
<path d="M1283 1463 l-73 -4 0 -111 0 -111 53 7 c28 3 87 6 130 6 l77 0 0 110
0 110 -57 -2 c-32 -1 -91 -4 -130 -5z"/>
<path d="M1540 1365 l0 -106 133 3 132 3 3 103 3 102 -136 0 -135 0 0 -105z"/>
<path d="M3540 1322 l0 -109 128 -10 c70 -5 130 -8 135 -6 10 6 9 185 -2 202
-9 14 -117 30 -208 31 l-53 0 0 -108z"/>
<path d="M4860 1181 l0 -119 113 -16 c61 -10 120 -20 130 -22 15 -5 17 5 17
115 0 67 -2 121 -5 121 -6 0 -186 27 -227 35 l-28 5 0 -119z"/>
<path d="M5190 1183 c0 -37 -3 -84 -6 -103 -10 -62 12 -76 149 -98 l117 -18 0
122 0 122 -112 16 c-62 10 -121 20 -130 22 -16 5 -18 -3 -18 -63z"/>
<path d="M1542 1103 l3 -108 130 0 130 0 0 105 0 105 -133 3 -133 3 3 -108z"/>
<path d="M5520 1070 c0 -116 1 -120 23 -125 45 -11 220 -45 228 -45 5 0 9 55
9 123 l0 123 -119 22 c-66 12 -124 22 -130 22 -7 0 -11 -40 -11 -120z"/>
<path d="M2273 1153 c37 -2 97 -2 135 0 37 2 6 3 -68 3 -74 0 -105 -1 -67 -3z"/>
<path d="M3540 1053 l0 -110 123 -11 c67 -7 128 -12 135 -12 9 0 12 28 12 109
l0 108 -47 6 c-27 4 -87 9 -135 13 l-88 7 0 -110z"/>
<path d="M2210 1070 l0 -60 130 0 130 0 0 60 0 60 -130 0 -130 0 0 -60z"/>
<path d="M4860 892 l0 -118 119 -22 c66 -12 124 -22 130 -22 7 0 11 40 11 118
l0 118 -112 18 c-62 9 -121 19 -130 22 -16 5 -18 -5 -18 -114z"/>
<path d="M2210 830 l0 -120 130 0 130 0 0 120 0 120 -130 0 -130 0 0 -120z"/>
<path d="M2540 820 l0 -120 135 0 135 0 0 120 0 120 -135 0 -135 0 0 -120z"/>
<path d="M2880 817 c0 -136 -15 -123 148 -130 l102 -5 0 119 0 119 -64 0 c-34
0 -91 3 -125 6 l-61 7 0 -116z"/>
<path d="M3210 797 l0 -125 63 -6 c34 -3 92 -8 130 -12 l67 -6 0 115 c0 137 4
132 -115 141 -44 4 -95 9 -112 12 l-33 5 0 -124z"/>
<path d="M3870 736 c0 -122 1 -126 23 -131 45 -10 237 -31 242 -27 9 9 5 241
-3 246 -5 3 -51 10 -103 16 -52 6 -109 13 -126 16 l-33 5 0 -125z"/>
<path d="M4210 691 c0 -117 1 -121 23 -126 22 -5 212 -35 222 -35 3 0 5 56 5
123 l0 124 -87 12 c-49 7 -105 15 -125 18 l-38 6 0 -122z"/>
<path d="M4860 589 c0 -70 4 -130 9 -133 5 -4 54 -15 108 -26 54 -11 108 -22
121 -25 22 -5 22 -5 22 129 l0 135 -52 10 c-29 6 -88 17 -130 25 l-78 13 0
-128z"/>
<path d="M5192 518 l3 -133 115 -27 c63 -15 121 -28 128 -28 9 0 12 33 12 134
0 120 -2 135 -17 140 -28 9 -214 46 -229 46 -12 0 -14 -23 -12 -132z"/>
</g>
</svg>
