<?xml version="1.0" encoding="UTF-8"?>
<svg xmlns="http://www.w3.org/2000/svg" xmlns:xlink="http://www.w3.org/1999/xlink" width="150px" height="185px" viewBox="0 0 150 185" version="1.1">
<g id="surface1">
<path style=" stroke:none;fill-rule:nonzero;fill:rgb(95.294118%,84.705882%,71.372549%);fill-opacity:1;" d="M 113.46875 123.285156 C 104.835938 120.199219 89.671875 117.863281 89.671875 85.691406 L 60.328125 85.691406 C 60.328125 117.863281 45.164062 120.199219 36.53125 123.285156 C 36.53125 145.164062 68.359375 145.839844 73.84375 147.878906 L 73.84375 148.585938 C 73.84375 148.585938 74.269531 148.5 75 148.273438 C 75.730469 148.5 76.15625 148.585938 76.15625 148.585938 L 76.15625 147.878906 C 81.640625 145.839844 113.46875 145.164062 113.46875 123.285156 Z M 113.46875 123.285156 "/>
<path style=" stroke:none;fill-rule:nonzero;fill:rgb(93.333333%,78.431373%,63.529412%);fill-opacity:1;" d="M 89.671875 85.691406 L 75.039062 85.691406 L 75.039062 148.285156 C 75.746094 148.503906 76.15625 148.585938 76.15625 148.585938 L 76.15625 147.878906 C 81.640625 145.839844 113.46875 145.164062 113.46875 123.285156 C 104.835938 120.199219 89.671875 117.863281 89.671875 85.691406 Z M 89.671875 85.691406 "/>
<path style=" stroke:none;fill-rule:nonzero;fill:rgb(95.294118%,85.882353%,76.862745%);fill-opacity:1;" d="M 75 95.929688 C 62.304688 95.929688 52.613281 85.25 48.273438 77.242188 C 43.929688 69.230469 40.925781 40.542969 50.28125 27.859375 C 59.441406 15.441406 75 21.46875 75 21.46875 C 75 21.46875 90.558594 15.441406 99.71875 27.859375 C 109.074219 40.542969 106.066406 69.230469 101.726562 77.242188 C 97.382812 85.25 87.695312 95.929688 75 95.929688 Z M 75 95.929688 "/>
<path style=" stroke:none;fill-rule:nonzero;fill:rgb(92.941176%,80.784314%,68.235294%);fill-opacity:1;" d="M 99.722656 27.859375 C 90.816406 15.789062 75.867188 21.144531 75.039062 21.453125 L 75.039062 95.929688 C 87.710938 95.910156 97.386719 85.242188 101.726562 77.242188 C 106.066406 69.230469 109.074219 40.542969 99.722656 27.859375 Z M 99.722656 27.859375 "/>
<path style=" stroke:none;fill-rule:nonzero;fill:rgb(92.941176%,80.784314%,68.235294%);fill-opacity:1;" d="M 106.5625 57.230469 C 104.164062 56.320312 100.957031 58.910156 99.402344 63.007812 C 97.847656 67.109375 98.53125 71.167969 100.929688 72.078125 C 103.332031 72.988281 106.539062 70.398438 108.09375 66.296875 C 109.648438 62.195312 108.960938 58.136719 106.5625 57.230469 Z M 106.5625 57.230469 "/>
<path style=" stroke:none;fill-rule:nonzero;fill:rgb(95.294118%,85.882353%,76.862745%);fill-opacity:1;" d="M 49.066406 72.074219 C 51.464844 71.167969 52.148438 67.109375 50.59375 63.007812 C 49.039062 58.90625 45.832031 56.320312 43.433594 57.226562 C 41.035156 58.136719 40.347656 62.195312 41.902344 66.296875 C 43.457031 70.398438 46.664062 72.984375 49.066406 72.074219 Z M 49.066406 72.074219 "/>
<path style=" stroke:none;fill-rule:nonzero;fill:rgb(65.490196%,72.156863%,83.137255%);fill-opacity:1;" d="M 94.417969 60 L 81.617188 60 C 81.066406 60 80.523438 60.113281 80.027344 60.332031 L 75 62.121094 L 69.972656 60.332031 C 69.476562 60.113281 68.933594 60 68.382812 60 L 55.582031 60 C 53.035156 60 52.152344 64.378906 52.152344 64.378906 C 52.152344 70.167969 56.40625 74.859375 63.140625 74.859375 C 67.246094 74.859375 71.191406 70.5 73.613281 66.96875 L 76.386719 66.96875 C 78.808594 70.5 82.753906 74.859375 86.859375 74.859375 C 93.597656 74.859375 97.847656 70.167969 97.847656 64.378906 C 97.847656 64.378906 96.964844 60 94.417969 60 Z M 94.417969 60 "/>
<path style=" stroke:none;fill-rule:nonzero;fill:rgb(54.117647%,64.313725%,76.078431%);fill-opacity:1;" d="M 94.417969 60 L 81.617188 60 C 81.066406 60 80.523438 60.113281 80.027344 60.332031 L 75.039062 62.105469 L 75.039062 66.96875 L 76.386719 66.96875 C 78.808594 70.5 82.753906 74.859375 86.859375 74.859375 C 93.59375 74.859375 97.847656 70.167969 97.847656 64.378906 C 97.847656 64.378906 96.964844 60 94.417969 60 Z M 94.417969 60 "/>
<path style=" stroke:none;fill-rule:nonzero;fill:rgb(62.745098%,45.882353%,43.529412%);fill-opacity:1;" d="M 101.074219 25.941406 C 100.078125 25.949219 89.300781 19.878906 81.941406 18.386719 C 73.265625 16.625 73.257812 18.140625 69.910156 19.085938 C 62.125 13.382812 42.855469 30.472656 42.855469 34.007812 C 42.855469 51.148438 41.578125 52.804688 43.648438 58.789062 C 45.722656 64.769531 47.5625 69.601562 47.5625 69.601562 C 47.5625 69.601562 48.945312 74.136719 48.945312 64.660156 C 48.945312 38.863281 50.242188 63.007812 95.191406 43.160156 C 104.050781 39.25 99.417969 52.382812 100.339844 61.8125 C 101.261719 71.246094 101.722656 69.601562 101.722656 69.601562 C 101.722656 69.601562 103.566406 64.769531 105.636719 58.785156 C 107.710938 52.804688 110.027344 25.863281 101.074219 25.941406 Z M 101.074219 25.941406 "/>
<path style=" stroke:none;fill-rule:nonzero;fill:rgb(54.901961%,40.392157%,38.431373%);fill-opacity:1;" d="M 101.074219 25.941406 C 100.078125 25.949219 89.300781 19.878906 81.941406 18.386719 C 78.558594 17.699219 76.496094 17.511719 75.039062 17.59375 L 75.039062 50.117188 C 80.523438 48.847656 87.15625 46.707031 95.191406 43.160156 C 104.050781 39.25 99.417969 52.382812 100.339844 61.8125 C 101.261719 71.246094 101.722656 69.601562 101.722656 69.601562 C 101.722656 69.601562 103.566406 64.769531 105.636719 58.785156 C 107.710938 52.804688 110.027344 25.863281 101.074219 25.941406 Z M 101.074219 25.941406 "/>
<path style=" stroke:none;fill-rule:nonzero;fill:rgb(71.764706%,79.215686%,91.372549%);fill-opacity:1;" d="M 48.617188 121.019531 L 101.382812 121.019531 L 101.382812 167.363281 L 48.617188 167.363281 Z M 48.617188 121.019531 "/>
<path style=" stroke:none;fill-rule:nonzero;fill:rgb(58.823529%,70.196078%,83.137255%);fill-opacity:1;" d="M 75.039062 121.019531 L 101.382812 121.019531 L 101.382812 167.363281 L 75.039062 167.363281 Z M 75.039062 121.019531 "/>
<path style=" stroke:none;fill-rule:nonzero;fill:rgb(21.176471%,47.45098%,57.254902%);fill-opacity:1;" d="M 38.050781 115.875 C 40.84375 114.191406 47.15625 112.441406 50.464844 111.625 C 53.214844 110.9375 52.074219 118.476562 53.089844 128.148438 C 54.144531 138.160156 62.007812 167.425781 62.007812 167.425781 L 19.273438 167.425781 L 19.273438 148.632812 C 19.273438 134.574219 27.308594 122.320312 38.050781 115.875 Z M 38.050781 115.875 "/>
<path style=" stroke:none;fill-rule:nonzero;fill:rgb(20.784314%,54.509804%,63.529412%);fill-opacity:1;" d="M 56.921875 107.160156 C 56.921875 107.160156 41.914062 111.085938 38.570312 115.761719 C 35.226562 120.441406 33.21875 126.785156 33.21875 126.785156 L 46.261719 131.464844 L 36.601562 140.863281 L 49.621094 167.363281 L 62.011719 167.363281 C 62.011719 167.363281 52.664062 133.890625 52.449219 122.09375 C 52.378906 118.230469 56.921875 107.160156 56.921875 107.160156 Z M 56.921875 107.160156 "/>
<path style=" stroke:none;fill-rule:nonzero;fill:rgb(18.431373%,41.176471%,49.411765%);fill-opacity:1;" d="M 111.949219 115.875 C 109.15625 114.191406 102.84375 112.441406 99.535156 111.625 C 96.785156 110.9375 97.925781 118.476562 96.910156 128.148438 C 95.855469 138.160156 87.988281 167.425781 87.988281 167.425781 L 130.726562 167.425781 L 130.726562 148.632812 C 130.726562 134.574219 122.691406 122.320312 111.949219 115.875 Z M 111.949219 115.875 "/>
<path style=" stroke:none;fill-rule:nonzero;fill:rgb(21.176471%,47.45098%,57.254902%);fill-opacity:1;" d="M 93.078125 107.160156 C 93.078125 107.160156 108.085938 111.085938 111.429688 115.761719 C 114.773438 120.441406 116.78125 126.785156 116.78125 126.785156 L 103.738281 131.464844 L 113.398438 140.863281 L 100.378906 167.363281 L 87.988281 167.363281 C 87.988281 167.363281 97.335938 133.890625 97.546875 122.09375 C 97.617188 118.230469 93.078125 107.160156 93.078125 107.160156 Z M 93.078125 107.160156 "/>
<path style=" stroke:none;fill-rule:nonzero;fill:rgb(92.941176%,80.784314%,68.235294%);fill-opacity:1;" d="M 106.5625 57.230469 C 104.164062 56.320312 100.957031 58.910156 99.402344 63.007812 C 97.847656 67.109375 98.53125 71.167969 100.929688 72.078125 C 103.332031 72.988281 106.539062 70.398438 108.09375 66.296875 C 109.648438 62.195312 108.960938 58.136719 106.5625 57.230469 Z M 106.5625 57.230469 "/>
<path style=" stroke:none;fill-rule:nonzero;fill:rgb(95.294118%,85.882353%,76.862745%);fill-opacity:1;" d="M 49.066406 72.074219 C 51.464844 71.167969 52.148438 67.109375 50.59375 63.007812 C 49.039062 58.90625 45.832031 56.320312 43.433594 57.226562 C 41.035156 58.136719 40.347656 62.195312 41.902344 66.296875 C 43.457031 70.398438 46.664062 72.984375 49.066406 72.074219 Z M 49.066406 72.074219 "/>
</g>
</svg>
