<?xml version="1.0" encoding="UTF-8"?>
<svg xmlns="http://www.w3.org/2000/svg" xmlns:xlink="http://www.w3.org/1999/xlink" viewBox="0 0 64 64" width="64px" height="64px">
<defs>
<linearGradient id="linear0" gradientUnits="userSpaceOnUse" x1="48.639" y1="0.872" x2="48.639" y2="61.139" >
<stop offset="0" style="stop-color:rgb(23.921569%,71.372551%,32.941177%);stop-opacity:1;"/>
<stop offset="1" style="stop-color:rgb(14.117648%,33.333334%,23.137255%);stop-opacity:1;"/>
</linearGradient>
<linearGradient id="linear1" gradientUnits="userSpaceOnUse" x1="33.585999" y1="0.872" x2="33.585999" y2="61.139" >
<stop offset="0" style="stop-color:rgb(23.921569%,71.372551%,32.941177%);stop-opacity:1;"/>
<stop offset="1" style="stop-color:rgb(14.117648%,33.333334%,23.137255%);stop-opacity:1;"/>
</linearGradient>
<linearGradient id="linear2" gradientUnits="userSpaceOnUse" x1="30.541" y1="0.872" x2="30.541" y2="61.139" >
<stop offset="0" style="stop-color:rgb(23.921569%,71.372551%,32.941177%);stop-opacity:1;"/>
<stop offset="1" style="stop-color:rgb(14.117648%,33.333334%,23.137255%);stop-opacity:1;"/>
</linearGradient>
<linearGradient id="linear3" gradientUnits="userSpaceOnUse" x1="48.613998" y1="0.872" x2="48.613998" y2="61.139" >
<stop offset="0" style="stop-color:rgb(23.921569%,71.372551%,32.941177%);stop-opacity:1;"/>
<stop offset="1" style="stop-color:rgb(14.117648%,33.333334%,23.137255%);stop-opacity:1;"/>
</linearGradient>
<linearGradient id="linear4" gradientUnits="userSpaceOnUse" x1="51.633999" y1="0.872" x2="51.633999" y2="61.139" >
<stop offset="0" style="stop-color:rgb(23.921569%,71.372551%,32.941177%);stop-opacity:1;"/>
<stop offset="1" style="stop-color:rgb(14.117648%,33.333334%,23.137255%);stop-opacity:1;"/>
</linearGradient>
<linearGradient id="linear5" gradientUnits="userSpaceOnUse" x1="51.626999" y1="0.872" x2="51.626999" y2="61.139" >
<stop offset="0" style="stop-color:rgb(23.921569%,71.372551%,32.941177%);stop-opacity:1;"/>
<stop offset="1" style="stop-color:rgb(14.117648%,33.333334%,23.137255%);stop-opacity:1;"/>
</linearGradient>
<linearGradient id="linear6" gradientUnits="userSpaceOnUse" x1="33.575001" y1="0.872" x2="33.575001" y2="61.139" >
<stop offset="0" style="stop-color:rgb(23.921569%,71.372551%,32.941177%);stop-opacity:1;"/>
<stop offset="1" style="stop-color:rgb(14.117648%,33.333334%,23.137255%);stop-opacity:1;"/>
</linearGradient>
<linearGradient id="linear7" gradientUnits="userSpaceOnUse" x1="45.630001" y1="0.872" x2="45.630001" y2="61.139" >
<stop offset="0" style="stop-color:rgb(23.921569%,71.372551%,32.941177%);stop-opacity:1;"/>
<stop offset="1" style="stop-color:rgb(14.117648%,33.333334%,23.137255%);stop-opacity:1;"/>
</linearGradient>
<linearGradient id="linear8" gradientUnits="userSpaceOnUse" x1="45.631001" y1="0.872" x2="45.631001" y2="61.139" >
<stop offset="0" style="stop-color:rgb(23.921569%,71.372551%,32.941177%);stop-opacity:1;"/>
<stop offset="1" style="stop-color:rgb(14.117648%,33.333334%,23.137255%);stop-opacity:1;"/>
</linearGradient>
<linearGradient id="linear9" gradientUnits="userSpaceOnUse" x1="36.605999" y1="0.872" x2="36.605999" y2="61.139" >
<stop offset="0" style="stop-color:rgb(23.921569%,71.372551%,32.941177%);stop-opacity:1;"/>
<stop offset="1" style="stop-color:rgb(14.117648%,33.333334%,23.137255%);stop-opacity:1;"/>
</linearGradient>
<linearGradient id="linear10" gradientUnits="userSpaceOnUse" x1="36.610001" y1="0.872" x2="36.610001" y2="61.139" >
<stop offset="0" style="stop-color:rgb(23.921569%,71.372551%,32.941177%);stop-opacity:1;"/>
<stop offset="1" style="stop-color:rgb(14.117648%,33.333334%,23.137255%);stop-opacity:1;"/>
</linearGradient>
<linearGradient id="linear11" gradientUnits="userSpaceOnUse" x1="27.492001" y1="0.872" x2="27.492001" y2="61.139" >
<stop offset="0" style="stop-color:rgb(23.921569%,71.372551%,32.941177%);stop-opacity:1;"/>
<stop offset="1" style="stop-color:rgb(14.117648%,33.333334%,23.137255%);stop-opacity:1;"/>
</linearGradient>
<linearGradient id="linear12" gradientUnits="userSpaceOnUse" x1="21.398001" y1="0.872" x2="21.398001" y2="61.139" >
<stop offset="0" style="stop-color:rgb(23.921569%,71.372551%,32.941177%);stop-opacity:1;"/>
<stop offset="1" style="stop-color:rgb(14.117648%,33.333334%,23.137255%);stop-opacity:1;"/>
</linearGradient>
<linearGradient id="linear13" gradientUnits="userSpaceOnUse" x1="24.443001" y1="0.872" x2="24.443001" y2="61.139" >
<stop offset="0" style="stop-color:rgb(23.921569%,71.372551%,32.941177%);stop-opacity:1;"/>
<stop offset="1" style="stop-color:rgb(14.117648%,33.333334%,23.137255%);stop-opacity:1;"/>
</linearGradient>
<linearGradient id="linear14" gradientUnits="userSpaceOnUse" x1="21.402" y1="0.872" x2="21.402" y2="61.139" >
<stop offset="0" style="stop-color:rgb(23.921569%,71.372551%,32.941177%);stop-opacity:1;"/>
<stop offset="1" style="stop-color:rgb(14.117648%,33.333334%,23.137255%);stop-opacity:1;"/>
</linearGradient>
<linearGradient id="linear15" gradientUnits="userSpaceOnUse" x1="48.646999" y1="0.872" x2="48.646999" y2="61.139" >
<stop offset="0" style="stop-color:rgb(23.921569%,71.372551%,32.941177%);stop-opacity:1;"/>
<stop offset="1" style="stop-color:rgb(14.117648%,33.333334%,23.137255%);stop-opacity:1;"/>
</linearGradient>
<linearGradient id="linear16" gradientUnits="userSpaceOnUse" x1="51.634998" y1="0.872" x2="51.634998" y2="61.139" >
<stop offset="0" style="stop-color:rgb(23.921569%,71.372551%,32.941177%);stop-opacity:1;"/>
<stop offset="1" style="stop-color:rgb(14.117648%,33.333334%,23.137255%);stop-opacity:1;"/>
</linearGradient>
<linearGradient id="linear17" gradientUnits="userSpaceOnUse" x1="45.633999" y1="0.872" x2="45.633999" y2="61.139" >
<stop offset="0" style="stop-color:rgb(23.921569%,71.372551%,32.941177%);stop-opacity:1;"/>
<stop offset="1" style="stop-color:rgb(14.117648%,33.333334%,23.137255%);stop-opacity:1;"/>
</linearGradient>
<linearGradient id="linear18" gradientUnits="userSpaceOnUse" x1="45.638" y1="0.872" x2="45.638" y2="61.139" >
<stop offset="0" style="stop-color:rgb(23.921569%,71.372551%,32.941177%);stop-opacity:1;"/>
<stop offset="1" style="stop-color:rgb(14.117648%,33.333334%,23.137255%);stop-opacity:1;"/>
</linearGradient>
<linearGradient id="linear19" gradientUnits="userSpaceOnUse" x1="45.630001" y1="0.872" x2="45.630001" y2="61.139" >
<stop offset="0" style="stop-color:rgb(23.921569%,71.372551%,32.941177%);stop-opacity:1;"/>
<stop offset="1" style="stop-color:rgb(14.117648%,33.333334%,23.137255%);stop-opacity:1;"/>
</linearGradient>
<linearGradient id="linear20" gradientUnits="userSpaceOnUse" x1="33.582001" y1="0.872" x2="33.582001" y2="61.139" >
<stop offset="0" style="stop-color:rgb(23.921569%,71.372551%,32.941177%);stop-opacity:1;"/>
<stop offset="1" style="stop-color:rgb(14.117648%,33.333334%,23.137255%);stop-opacity:1;"/>
</linearGradient>
<linearGradient id="linear21" gradientUnits="userSpaceOnUse" x1="9.217" y1="0.872" x2="9.217" y2="61.139" >
<stop offset="0" style="stop-color:rgb(23.921569%,71.372551%,32.941177%);stop-opacity:1;"/>
<stop offset="1" style="stop-color:rgb(14.117648%,33.333334%,23.137255%);stop-opacity:1;"/>
</linearGradient>
<linearGradient id="linear22" gradientUnits="userSpaceOnUse" x1="9.216" y1="0.872" x2="9.216" y2="61.139" >
<stop offset="0" style="stop-color:rgb(23.921569%,71.372551%,32.941177%);stop-opacity:1;"/>
<stop offset="1" style="stop-color:rgb(14.117648%,33.333334%,23.137255%);stop-opacity:1;"/>
</linearGradient>
<linearGradient id="linear23" gradientUnits="userSpaceOnUse" x1="9.22" y1="0.872" x2="9.22" y2="61.139" >
<stop offset="0" style="stop-color:rgb(23.921569%,71.372551%,32.941177%);stop-opacity:1;"/>
<stop offset="1" style="stop-color:rgb(14.117648%,33.333334%,23.137255%);stop-opacity:1;"/>
</linearGradient>
<linearGradient id="linear24" gradientUnits="userSpaceOnUse" x1="9.217" y1="0.872" x2="9.217" y2="61.139" >
<stop offset="0" style="stop-color:rgb(23.921569%,71.372551%,32.941177%);stop-opacity:1;"/>
<stop offset="1" style="stop-color:rgb(14.117648%,33.333334%,23.137255%);stop-opacity:1;"/>
</linearGradient>
<linearGradient id="linear25" gradientUnits="userSpaceOnUse" x1="21.407" y1="0.872" x2="21.407" y2="61.139" >
<stop offset="0" style="stop-color:rgb(23.921569%,71.372551%,32.941177%);stop-opacity:1;"/>
<stop offset="1" style="stop-color:rgb(14.117648%,33.333334%,23.137255%);stop-opacity:1;"/>
</linearGradient>
<linearGradient id="linear26" gradientUnits="userSpaceOnUse" x1="18.341" y1="0.872" x2="18.341" y2="61.139" >
<stop offset="0" style="stop-color:rgb(23.921569%,71.372551%,32.941177%);stop-opacity:1;"/>
<stop offset="1" style="stop-color:rgb(14.117648%,33.333334%,23.137255%);stop-opacity:1;"/>
</linearGradient>
<linearGradient id="linear27" gradientUnits="userSpaceOnUse" x1="18.341" y1="0.872" x2="18.341" y2="61.139" >
<stop offset="0" style="stop-color:rgb(23.921569%,71.372551%,32.941177%);stop-opacity:1;"/>
<stop offset="1" style="stop-color:rgb(14.117648%,33.333334%,23.137255%);stop-opacity:1;"/>
</linearGradient>
<linearGradient id="linear28" gradientUnits="userSpaceOnUse" x1="18.341999" y1="0.872" x2="18.341999" y2="61.139" >
<stop offset="0" style="stop-color:rgb(23.921569%,71.372551%,32.941177%);stop-opacity:1;"/>
<stop offset="1" style="stop-color:rgb(14.117648%,33.333334%,23.137255%);stop-opacity:1;"/>
</linearGradient>
<linearGradient id="linear29" gradientUnits="userSpaceOnUse" x1="15.29" y1="0.872" x2="15.29" y2="61.139" >
<stop offset="0" style="stop-color:rgb(23.921569%,71.372551%,32.941177%);stop-opacity:1;"/>
<stop offset="1" style="stop-color:rgb(14.117648%,33.333334%,23.137255%);stop-opacity:1;"/>
</linearGradient>
<linearGradient id="linear30" gradientUnits="userSpaceOnUse" x1="18.348" y1="0.872" x2="18.348" y2="61.139" >
<stop offset="0" style="stop-color:rgb(23.921569%,71.372551%,32.941177%);stop-opacity:1;"/>
<stop offset="1" style="stop-color:rgb(14.117648%,33.333334%,23.137255%);stop-opacity:1;"/>
</linearGradient>
<linearGradient id="linear31" gradientUnits="userSpaceOnUse" x1="12.245" y1="0.872" x2="12.245" y2="61.139" >
<stop offset="0" style="stop-color:rgb(23.921569%,71.372551%,32.941177%);stop-opacity:1;"/>
<stop offset="1" style="stop-color:rgb(14.117648%,33.333334%,23.137255%);stop-opacity:1;"/>
</linearGradient>
<linearGradient id="linear32" gradientUnits="userSpaceOnUse" x1="15.286" y1="0.872" x2="15.286" y2="61.139" >
<stop offset="0" style="stop-color:rgb(23.921569%,71.372551%,32.941177%);stop-opacity:1;"/>
<stop offset="1" style="stop-color:rgb(14.117648%,33.333334%,23.137255%);stop-opacity:1;"/>
</linearGradient>
<linearGradient id="linear33" gradientUnits="userSpaceOnUse" x1="18.354" y1="0.872" x2="18.354" y2="61.139" >
<stop offset="0" style="stop-color:rgb(23.921569%,71.372551%,32.941177%);stop-opacity:1;"/>
<stop offset="1" style="stop-color:rgb(14.117648%,33.333334%,23.137255%);stop-opacity:1;"/>
</linearGradient>
<linearGradient id="linear34" gradientUnits="userSpaceOnUse" x1="12.248" y1="0.872" x2="12.248" y2="61.139" >
<stop offset="0" style="stop-color:rgb(23.921569%,71.372551%,32.941177%);stop-opacity:1;"/>
<stop offset="1" style="stop-color:rgb(14.117648%,33.333334%,23.137255%);stop-opacity:1;"/>
</linearGradient>
<linearGradient id="linear35" gradientUnits="userSpaceOnUse" x1="12.248" y1="0.872" x2="12.248" y2="61.139" >
<stop offset="0" style="stop-color:rgb(23.921569%,71.372551%,32.941177%);stop-opacity:1;"/>
<stop offset="1" style="stop-color:rgb(14.117648%,33.333334%,23.137255%);stop-opacity:1;"/>
</linearGradient>
<linearGradient id="linear36" gradientUnits="userSpaceOnUse" x1="12.244" y1="0.872" x2="12.244" y2="61.139" >
<stop offset="0" style="stop-color:rgb(23.921569%,71.372551%,32.941177%);stop-opacity:1;"/>
<stop offset="1" style="stop-color:rgb(14.117648%,33.333334%,23.137255%);stop-opacity:1;"/>
</linearGradient>
<linearGradient id="linear37" gradientUnits="userSpaceOnUse" x1="12.243" y1="0.872" x2="12.243" y2="61.139" >
<stop offset="0" style="stop-color:rgb(23.921569%,71.372551%,32.941177%);stop-opacity:1;"/>
<stop offset="1" style="stop-color:rgb(14.117648%,33.333334%,23.137255%);stop-opacity:1;"/>
</linearGradient>
<linearGradient id="linear38" gradientUnits="userSpaceOnUse" x1="15.295" y1="0.872" x2="15.295" y2="61.139" >
<stop offset="0" style="stop-color:rgb(23.921569%,71.372551%,32.941177%);stop-opacity:1;"/>
<stop offset="1" style="stop-color:rgb(14.117648%,33.333334%,23.137255%);stop-opacity:1;"/>
</linearGradient>
<linearGradient id="linear39" gradientUnits="userSpaceOnUse" x1="12.239" y1="0.872" x2="12.239" y2="61.139" >
<stop offset="0" style="stop-color:rgb(23.921569%,71.372551%,32.941177%);stop-opacity:1;"/>
<stop offset="1" style="stop-color:rgb(14.117648%,33.333334%,23.137255%);stop-opacity:1;"/>
</linearGradient>
<linearGradient id="linear40" gradientUnits="userSpaceOnUse" x1="15.287" y1="0.872" x2="15.287" y2="61.139" >
<stop offset="0" style="stop-color:rgb(23.921569%,71.372551%,32.941177%);stop-opacity:1;"/>
<stop offset="1" style="stop-color:rgb(14.117648%,33.333334%,23.137255%);stop-opacity:1;"/>
</linearGradient>
<linearGradient id="linear41" gradientUnits="userSpaceOnUse" x1="12.246" y1="0.872" x2="12.246" y2="61.139" >
<stop offset="0" style="stop-color:rgb(23.921569%,71.372551%,32.941177%);stop-opacity:1;"/>
<stop offset="1" style="stop-color:rgb(14.117648%,33.333334%,23.137255%);stop-opacity:1;"/>
</linearGradient>
<linearGradient id="linear42" gradientUnits="userSpaceOnUse" x1="21.395" y1="0.872" x2="21.395" y2="61.139" >
<stop offset="0" style="stop-color:rgb(23.921569%,71.372551%,32.941177%);stop-opacity:1;"/>
<stop offset="1" style="stop-color:rgb(14.117648%,33.333334%,23.137255%);stop-opacity:1;"/>
</linearGradient>
<linearGradient id="linear43" gradientUnits="userSpaceOnUse" x1="18.347" y1="0.872" x2="18.347" y2="61.139" >
<stop offset="0" style="stop-color:rgb(23.921569%,71.372551%,32.941177%);stop-opacity:1;"/>
<stop offset="1" style="stop-color:rgb(14.117648%,33.333334%,23.137255%);stop-opacity:1;"/>
</linearGradient>
<linearGradient id="linear44" gradientUnits="userSpaceOnUse" x1="15.292" y1="0.872" x2="15.292" y2="61.139" >
<stop offset="0" style="stop-color:rgb(23.921569%,71.372551%,32.941177%);stop-opacity:1;"/>
<stop offset="1" style="stop-color:rgb(14.117648%,33.333334%,23.137255%);stop-opacity:1;"/>
</linearGradient>
<linearGradient id="linear45" gradientUnits="userSpaceOnUse" x1="12.249" y1="0.872" x2="12.249" y2="61.139" >
<stop offset="0" style="stop-color:rgb(23.921569%,71.372551%,32.941177%);stop-opacity:1;"/>
<stop offset="1" style="stop-color:rgb(14.117648%,33.333334%,23.137255%);stop-opacity:1;"/>
</linearGradient>
<linearGradient id="linear46" gradientUnits="userSpaceOnUse" x1="15.287" y1="0.872" x2="15.287" y2="61.139" >
<stop offset="0" style="stop-color:rgb(23.921569%,71.372551%,32.941177%);stop-opacity:1;"/>
<stop offset="1" style="stop-color:rgb(14.117648%,33.333334%,23.137255%);stop-opacity:1;"/>
</linearGradient>
<linearGradient id="linear47" gradientUnits="userSpaceOnUse" x1="15.296" y1="0.872" x2="15.296" y2="61.139" >
<stop offset="0" style="stop-color:rgb(23.921569%,71.372551%,32.941177%);stop-opacity:1;"/>
<stop offset="1" style="stop-color:rgb(14.117648%,33.333334%,23.137255%);stop-opacity:1;"/>
</linearGradient>
<linearGradient id="linear48" gradientUnits="userSpaceOnUse" x1="15.285" y1="0.872" x2="15.285" y2="61.139" >
<stop offset="0" style="stop-color:rgb(23.921569%,71.372551%,32.941177%);stop-opacity:1;"/>
<stop offset="1" style="stop-color:rgb(14.117648%,33.333334%,23.137255%);stop-opacity:1;"/>
</linearGradient>
<linearGradient id="linear49" gradientUnits="userSpaceOnUse" x1="18.343" y1="0.872" x2="18.343" y2="61.139" >
<stop offset="0" style="stop-color:rgb(23.921569%,71.372551%,32.941177%);stop-opacity:1;"/>
<stop offset="1" style="stop-color:rgb(14.117648%,33.333334%,23.137255%);stop-opacity:1;"/>
</linearGradient>
<linearGradient id="linear50" gradientUnits="userSpaceOnUse" x1="15.291" y1="0.872" x2="15.291" y2="61.139" >
<stop offset="0" style="stop-color:rgb(23.921569%,71.372551%,32.941177%);stop-opacity:1;"/>
<stop offset="1" style="stop-color:rgb(14.117648%,33.333334%,23.137255%);stop-opacity:1;"/>
</linearGradient>
<linearGradient id="linear51" gradientUnits="userSpaceOnUse" x1="18.346001" y1="0.872" x2="18.346001" y2="61.139" >
<stop offset="0" style="stop-color:rgb(23.921569%,71.372551%,32.941177%);stop-opacity:1;"/>
<stop offset="1" style="stop-color:rgb(14.117648%,33.333334%,23.137255%);stop-opacity:1;"/>
</linearGradient>
<linearGradient id="linear52" gradientUnits="userSpaceOnUse" x1="15.286" y1="0.872" x2="15.286" y2="61.139" >
<stop offset="0" style="stop-color:rgb(23.921569%,71.372551%,32.941177%);stop-opacity:1;"/>
<stop offset="1" style="stop-color:rgb(14.117648%,33.333334%,23.137255%);stop-opacity:1;"/>
</linearGradient>
<linearGradient id="linear53" gradientUnits="userSpaceOnUse" x1="18.343" y1="0.872" x2="18.343" y2="61.139" >
<stop offset="0" style="stop-color:rgb(23.921569%,71.372551%,32.941177%);stop-opacity:1;"/>
<stop offset="1" style="stop-color:rgb(14.117648%,33.333334%,23.137255%);stop-opacity:1;"/>
</linearGradient>
<linearGradient id="linear54" gradientUnits="userSpaceOnUse" x1="27.51" y1="0.872" x2="27.51" y2="61.139" >
<stop offset="0" style="stop-color:rgb(23.921569%,71.372551%,32.941177%);stop-opacity:1;"/>
<stop offset="1" style="stop-color:rgb(14.117648%,33.333334%,23.137255%);stop-opacity:1;"/>
</linearGradient>
<linearGradient id="linear55" gradientUnits="userSpaceOnUse" x1="26.587999" y1="0.872" x2="26.587999" y2="61.139" >
<stop offset="0" style="stop-color:rgb(23.921569%,71.372551%,32.941177%);stop-opacity:1;"/>
<stop offset="1" style="stop-color:rgb(14.117648%,33.333334%,23.137255%);stop-opacity:1;"/>
</linearGradient>
<linearGradient id="linear56" gradientUnits="userSpaceOnUse" x1="24.468" y1="0.872" x2="24.468" y2="61.139" >
<stop offset="0" style="stop-color:rgb(23.921569%,71.372551%,32.941177%);stop-opacity:1;"/>
<stop offset="1" style="stop-color:rgb(14.117648%,33.333334%,23.137255%);stop-opacity:1;"/>
</linearGradient>
<linearGradient id="linear57" gradientUnits="userSpaceOnUse" x1="26.295" y1="0.872" x2="26.295" y2="61.139" >
<stop offset="0" style="stop-color:rgb(23.921569%,71.372551%,32.941177%);stop-opacity:1;"/>
<stop offset="1" style="stop-color:rgb(14.117648%,33.333334%,23.137255%);stop-opacity:1;"/>
</linearGradient>
<linearGradient id="linear58" gradientUnits="userSpaceOnUse" x1="51.647999" y1="0.872" x2="51.647999" y2="61.139" >
<stop offset="0" style="stop-color:rgb(23.921569%,71.372551%,32.941177%);stop-opacity:1;"/>
<stop offset="1" style="stop-color:rgb(14.117648%,33.333334%,23.137255%);stop-opacity:1;"/>
</linearGradient>
<linearGradient id="linear59" gradientUnits="userSpaceOnUse" x1="36.570999" y1="0.872" x2="36.570999" y2="61.139" >
<stop offset="0" style="stop-color:rgb(23.921569%,71.372551%,32.941177%);stop-opacity:1;"/>
<stop offset="1" style="stop-color:rgb(14.117648%,33.333334%,23.137255%);stop-opacity:1;"/>
</linearGradient>
<linearGradient id="linear60" gradientUnits="userSpaceOnUse" x1="37.201" y1="0.872" x2="37.201" y2="61.139" >
<stop offset="0" style="stop-color:rgb(23.921569%,71.372551%,32.941177%);stop-opacity:1;"/>
<stop offset="1" style="stop-color:rgb(14.117648%,33.333334%,23.137255%);stop-opacity:1;"/>
</linearGradient>
<linearGradient id="linear61" gradientUnits="userSpaceOnUse" x1="37.709" y1="0.872" x2="37.709" y2="61.139" >
<stop offset="0" style="stop-color:rgb(23.921569%,71.372551%,32.941177%);stop-opacity:1;"/>
<stop offset="1" style="stop-color:rgb(14.117648%,33.333334%,23.137255%);stop-opacity:1;"/>
</linearGradient>
<linearGradient id="linear62" gradientUnits="userSpaceOnUse" x1="48.638" y1="6.234" x2="48.638" y2="59.342999" >
<stop offset="0" style="stop-color:rgb(87.450981%,100%,44.313726%);stop-opacity:1;"/>
<stop offset="1" style="stop-color:rgb(40.392157%,76.47059%,67.843139%);stop-opacity:1;"/>
</linearGradient>
<linearGradient id="linear63" gradientUnits="userSpaceOnUse" x1="39.657001" y1="6.234" x2="39.657001" y2="59.342999" >
<stop offset="0" style="stop-color:rgb(87.450981%,100%,44.313726%);stop-opacity:1;"/>
<stop offset="1" style="stop-color:rgb(40.392157%,76.47059%,67.843139%);stop-opacity:1;"/>
</linearGradient>
<linearGradient id="linear64" gradientUnits="userSpaceOnUse" x1="42.647999" y1="6.234" x2="42.647999" y2="59.342999" >
<stop offset="0" style="stop-color:rgb(87.450981%,100%,44.313726%);stop-opacity:1;"/>
<stop offset="1" style="stop-color:rgb(40.392157%,76.47059%,67.843139%);stop-opacity:1;"/>
</linearGradient>
<linearGradient id="linear65" gradientUnits="userSpaceOnUse" x1="30.534" y1="6.234" x2="30.534" y2="59.342999" >
<stop offset="0" style="stop-color:rgb(87.450981%,100%,44.313726%);stop-opacity:1;"/>
<stop offset="1" style="stop-color:rgb(40.392157%,76.47059%,67.843139%);stop-opacity:1;"/>
</linearGradient>
<linearGradient id="linear66" gradientUnits="userSpaceOnUse" x1="27.478001" y1="6.234" x2="27.478001" y2="59.342999" >
<stop offset="0" style="stop-color:rgb(87.450981%,100%,44.313726%);stop-opacity:1;"/>
<stop offset="1" style="stop-color:rgb(40.392157%,76.47059%,67.843139%);stop-opacity:1;"/>
</linearGradient>
<linearGradient id="linear67" gradientUnits="userSpaceOnUse" x1="18.337" y1="6.234" x2="18.337" y2="59.342999" >
<stop offset="0" style="stop-color:rgb(87.450981%,100%,44.313726%);stop-opacity:1;"/>
<stop offset="1" style="stop-color:rgb(40.392157%,76.47059%,67.843139%);stop-opacity:1;"/>
</linearGradient>
<linearGradient id="linear68" gradientUnits="userSpaceOnUse" x1="45.632999" y1="6.234" x2="45.632999" y2="59.342999" >
<stop offset="0" style="stop-color:rgb(87.450981%,100%,44.313726%);stop-opacity:1;"/>
<stop offset="1" style="stop-color:rgb(40.392157%,76.47059%,67.843139%);stop-opacity:1;"/>
</linearGradient>
<linearGradient id="linear69" gradientUnits="userSpaceOnUse" x1="9.219" y1="6.234" x2="9.219" y2="59.342999" >
<stop offset="0" style="stop-color:rgb(87.450981%,100%,44.313726%);stop-opacity:1;"/>
<stop offset="1" style="stop-color:rgb(40.392157%,76.47059%,67.843139%);stop-opacity:1;"/>
</linearGradient>
<linearGradient id="linear70" gradientUnits="userSpaceOnUse" x1="9.204" y1="6.234" x2="9.204" y2="59.342999" >
<stop offset="0" style="stop-color:rgb(87.450981%,100%,44.313726%);stop-opacity:1;"/>
<stop offset="1" style="stop-color:rgb(40.392157%,76.47059%,67.843139%);stop-opacity:1;"/>
</linearGradient>
<linearGradient id="linear71" gradientUnits="userSpaceOnUse" x1="9.223" y1="6.234" x2="9.223" y2="59.342999" >
<stop offset="0" style="stop-color:rgb(87.450981%,100%,44.313726%);stop-opacity:1;"/>
<stop offset="1" style="stop-color:rgb(40.392157%,76.47059%,67.843139%);stop-opacity:1;"/>
</linearGradient>
<linearGradient id="linear72" gradientUnits="userSpaceOnUse" x1="9.226" y1="6.234" x2="9.226" y2="59.342999" >
<stop offset="0" style="stop-color:rgb(87.450981%,100%,44.313726%);stop-opacity:1;"/>
<stop offset="1" style="stop-color:rgb(40.392157%,76.47059%,67.843139%);stop-opacity:1;"/>
</linearGradient>
<linearGradient id="linear73" gradientUnits="userSpaceOnUse" x1="12.243" y1="6.234" x2="12.243" y2="59.342999" >
<stop offset="0" style="stop-color:rgb(87.450981%,100%,44.313726%);stop-opacity:1;"/>
<stop offset="1" style="stop-color:rgb(40.392157%,76.47059%,67.843139%);stop-opacity:1;"/>
</linearGradient>
<linearGradient id="linear74" gradientUnits="userSpaceOnUse" x1="12.239" y1="6.234" x2="12.239" y2="59.342999" >
<stop offset="0" style="stop-color:rgb(87.450981%,100%,44.313726%);stop-opacity:1;"/>
<stop offset="1" style="stop-color:rgb(40.392157%,76.47059%,67.843139%);stop-opacity:1;"/>
</linearGradient>
<linearGradient id="linear75" gradientUnits="userSpaceOnUse" x1="12.243" y1="6.234" x2="12.243" y2="59.342999" >
<stop offset="0" style="stop-color:rgb(87.450981%,100%,44.313726%);stop-opacity:1;"/>
<stop offset="1" style="stop-color:rgb(40.392157%,76.47059%,67.843139%);stop-opacity:1;"/>
</linearGradient>
<linearGradient id="linear76" gradientUnits="userSpaceOnUse" x1="15.291" y1="6.234" x2="15.291" y2="59.342999" >
<stop offset="0" style="stop-color:rgb(87.450981%,100%,44.313726%);stop-opacity:1;"/>
<stop offset="1" style="stop-color:rgb(40.392157%,76.47059%,67.843139%);stop-opacity:1;"/>
</linearGradient>
<linearGradient id="linear77" gradientUnits="userSpaceOnUse" x1="15.293" y1="6.234" x2="15.293" y2="59.342999" >
<stop offset="0" style="stop-color:rgb(87.450981%,100%,44.313726%);stop-opacity:1;"/>
<stop offset="1" style="stop-color:rgb(40.392157%,76.47059%,67.843139%);stop-opacity:1;"/>
</linearGradient>
<linearGradient id="linear78" gradientUnits="userSpaceOnUse" x1="21.398001" y1="6.234" x2="21.398001" y2="59.342999" >
<stop offset="0" style="stop-color:rgb(87.450981%,100%,44.313726%);stop-opacity:1;"/>
<stop offset="1" style="stop-color:rgb(40.392157%,76.47059%,67.843139%);stop-opacity:1;"/>
</linearGradient>
<linearGradient id="linear79" gradientUnits="userSpaceOnUse" x1="21.392" y1="6.234" x2="21.392" y2="59.342999" >
<stop offset="0" style="stop-color:rgb(87.450981%,100%,44.313726%);stop-opacity:1;"/>
<stop offset="1" style="stop-color:rgb(40.392157%,76.47059%,67.843139%);stop-opacity:1;"/>
</linearGradient>
<linearGradient id="linear80" gradientUnits="userSpaceOnUse" x1="23.855" y1="6.234" x2="23.855" y2="59.342999" >
<stop offset="0" style="stop-color:rgb(87.450981%,100%,44.313726%);stop-opacity:1;"/>
<stop offset="1" style="stop-color:rgb(40.392157%,76.47059%,67.843139%);stop-opacity:1;"/>
</linearGradient>
<linearGradient id="linear81" gradientUnits="userSpaceOnUse" x1="23.858" y1="6.234" x2="23.858" y2="59.342999" >
<stop offset="0" style="stop-color:rgb(87.450981%,100%,44.313726%);stop-opacity:1;"/>
<stop offset="1" style="stop-color:rgb(40.392157%,76.47059%,67.843139%);stop-opacity:1;"/>
</linearGradient>
</defs>
<g id="surface30481799">
<path style=" stroke:none;fill-rule:nonzero;fill:rgb(72.549021%,88.235295%,65.490198%);fill-opacity:0.58824;" d="M 9.921875 64 C 4.441406 64 0 59.558594 0 54.078125 L 0 9.921875 C 0 4.441406 4.441406 0 9.921875 0 L 54.078125 0 C 59.558594 0 64 4.441406 64 9.921875 L 64 54.078125 C 64 59.558594 59.558594 64 54.078125 64 Z M 9.921875 64 "/>
<path style=" stroke:none;fill-rule:nonzero;fill:url(#linear0);" d="M 49.609375 58.46875 C 49.148438 58.359375 48.6875 58.269531 48.222656 58.179688 C 47.96875 58.128906 47.71875 58.082031 47.433594 58.027344 C 47.433594 58.808594 47.429688 59.539062 47.441406 60.269531 C 47.441406 60.34375 47.519531 60.476562 47.582031 60.488281 C 48.320312 60.667969 49.0625 60.828125 49.84375 61 C 49.84375 60.203125 49.847656 59.429688 49.835938 58.65625 C 49.832031 58.589844 49.699219 58.488281 49.609375 58.46875 Z M 49.609375 58.46875 "/>
<path style=" stroke:none;fill-rule:nonzero;fill:url(#linear1);" d="M 34.796875 7.765625 C 34.808594 7.0625 34.804688 6.363281 34.804688 5.632812 C 33.957031 5.722656 33.160156 5.808594 32.367188 5.890625 C 32.367188 6.648438 32.367188 7.375 32.367188 8.128906 C 33.140625 8.058594 33.894531 7.988281 34.648438 7.910156 C 34.707031 7.902344 34.796875 7.816406 34.796875 7.765625 Z M 34.796875 7.765625 "/>
<path style=" stroke:none;fill-rule:nonzero;fill:url(#linear2);" d="M 30.996094 55.761719 C 30.449219 55.710938 29.898438 55.675781 29.332031 55.628906 L 29.328125 55.628906 C 29.328125 56.390625 29.328125 57.101562 29.328125 57.851562 C 30.136719 57.917969 30.925781 57.980469 31.753906 58.050781 C 31.753906 57.542969 31.753906 57.066406 31.753906 56.585938 C 31.753906 55.839844 31.753906 55.832031 30.996094 55.761719 Z M 30.996094 55.761719 "/>
<path style=" stroke:none;fill-rule:nonzero;fill:url(#linear3);" d="M 48.40625 54.933594 C 48.875 55.019531 49.34375 55.101562 49.820312 55.183594 C 49.820312 54.421875 49.820312 53.710938 49.820312 52.988281 C 49.027344 52.859375 48.257812 52.730469 47.433594 52.597656 C 47.433594 52.8125 47.429688 53.007812 47.429688 53.195312 C 47.429688 53.386719 47.429688 53.570312 47.433594 53.75 C 47.4375 53.996094 47.382812 54.289062 47.425781 54.511719 C 47.4375 54.585938 47.460938 54.652344 47.503906 54.707031 C 47.652344 54.898438 48.09375 54.875 48.40625 54.933594 Z M 48.40625 54.933594 "/>
<path style=" stroke:none;fill-rule:nonzero;fill:url(#linear4);" d="M 50.460938 55.308594 C 51.242188 55.46875 52.015625 55.621094 52.808594 55.78125 C 52.808594 55.019531 52.808594 54.289062 52.808594 53.527344 C 52.015625 53.382812 51.25 53.242188 50.460938 53.101562 C 50.460938 53.855469 50.460938 54.570312 50.460938 55.308594 Z M 50.460938 55.308594 "/>
<path style=" stroke:none;fill-rule:nonzero;fill:url(#linear5);" d="M 52.804688 7.644531 C 52.804688 6.898438 52.804688 6.171875 52.804688 5.390625 C 52.058594 5.554688 51.328125 5.714844 50.601562 5.886719 C 50.539062 5.898438 50.457031 5.980469 50.457031 6.03125 C 50.445312 6.722656 50.449219 7.414062 50.449219 8.128906 C 50.449219 8.128906 50.449219 8.132812 50.449219 8.132812 C 51.261719 7.964844 52.027344 7.804688 52.804688 7.644531 Z M 52.804688 7.644531 "/>
<path style=" stroke:none;fill-rule:nonzero;fill:url(#linear6);" d="M 32.367188 53.382812 C 32.367188 54.074219 32.367188 54.707031 32.367188 55.359375 L 32.367188 55.363281 C 33.171875 55.4375 33.960938 55.511719 34.78125 55.589844 C 34.78125 54.894531 34.78125 54.25 34.78125 53.589844 C 33.964844 53.519531 33.167969 53.449219 32.367188 53.382812 Z M 32.367188 53.382812 "/>
<path style=" stroke:none;fill-rule:nonzero;fill:url(#linear7);" d="M 46.832031 3.671875 C 46.289062 3.78125 45.773438 3.882812 45.253906 3.988281 C 44.429688 4.160156 44.429688 4.160156 44.429688 5 C 44.429688 5.507812 44.429688 6.011719 44.429688 6.546875 C 45.265625 6.394531 46.046875 6.25 46.828125 6.105469 C 46.832031 5.261719 46.832031 4.476562 46.832031 3.671875 Z M 46.832031 3.671875 "/>
<path style=" stroke:none;fill-rule:nonzero;fill:url(#linear8);" d="M 44.4375 59.683594 C 44.4375 59.746094 44.515625 59.859375 44.574219 59.871094 C 45.316406 60.027344 46.066406 60.175781 46.832031 60.324219 C 46.832031 59.503906 46.832031 58.710938 46.832031 57.894531 C 46.039062 57.75 45.261719 57.605469 44.429688 57.453125 C 44.429688 58.246094 44.425781 58.964844 44.4375 59.683594 Z M 44.4375 59.683594 "/>
<path style=" stroke:none;fill-rule:nonzero;fill:url(#linear9);" d="M 35.40625 58.4375 C 36.214844 58.539062 37 58.644531 37.804688 58.746094 C 37.804688 57.964844 37.804688 57.21875 37.804688 56.449219 C 37 56.355469 36.214844 56.265625 35.40625 56.171875 C 35.40625 56.941406 35.40625 57.671875 35.40625 58.4375 Z M 35.40625 58.4375 "/>
<path style=" stroke:none;fill-rule:nonzero;fill:url(#linear10);" d="M 37.804688 5.25 C 36.988281 5.355469 36.195312 5.460938 35.414062 5.5625 C 35.414062 6.335938 35.414062 7.070312 35.414062 7.828125 C 36.230469 7.734375 37.015625 7.640625 37.804688 7.550781 C 37.804688 6.765625 37.804688 6.019531 37.804688 5.25 Z M 37.804688 5.25 "/>
<path style=" stroke:none;fill-rule:nonzero;fill:url(#linear11);" d="M 28.695312 6.199219 C 27.886719 6.242188 27.105469 6.285156 26.289062 6.328125 C 26.289062 7.085938 26.289062 7.804688 26.289062 8.542969 C 27.113281 8.496094 27.902344 8.449219 28.695312 8.40625 C 28.695312 7.652344 28.695312 6.9375 28.695312 6.199219 Z M 28.695312 6.199219 "/>
<path style=" stroke:none;fill-rule:nonzero;fill:url(#linear12);" d="M 20.195312 57.511719 C 21.003906 57.511719 21.792969 57.511719 22.601562 57.511719 C 22.601562 56.804688 22.601562 56.089844 22.601562 55.34375 C 21.796875 55.34375 21.007812 55.34375 20.195312 55.34375 C 20.195312 56.046875 20.195312 56.746094 20.195312 57.511719 Z M 20.195312 57.511719 "/>
<path style=" stroke:none;fill-rule:nonzero;fill:url(#linear13);" d="M 23.242188 57.585938 C 24.066406 57.585938 24.855469 57.585938 25.644531 57.585938 C 25.644531 56.875 25.644531 56.171875 25.644531 55.417969 C 24.835938 55.417969 24.046875 55.417969 23.242188 55.417969 C 23.242188 56.113281 23.242188 56.816406 23.242188 57.585938 Z M 23.242188 57.585938 "/>
<path style=" stroke:none;fill-rule:nonzero;fill:url(#linear14);" d="M 22.601562 6.492188 C 21.789062 6.492188 21 6.492188 20.203125 6.492188 C 20.203125 7.238281 20.203125 7.949219 20.203125 8.652344 C 21.015625 8.652344 21.800781 8.652344 22.601562 8.652344 C 22.601562 7.898438 22.601562 7.195312 22.601562 6.492188 Z M 22.601562 6.492188 "/>
<path style=" stroke:none;fill-rule:nonzero;fill:url(#linear15);" d="M 49.832031 8.808594 C 49.011719 8.960938 48.226562 9.105469 47.460938 9.242188 C 47.460938 9.984375 47.460938 10.671875 47.460938 11.398438 C 48.273438 11.265625 49.050781 11.140625 49.832031 11.011719 C 49.832031 10.269531 49.832031 9.566406 49.832031 8.808594 Z M 49.832031 8.808594 "/>
<path style=" stroke:none;fill-rule:nonzero;fill:url(#linear16);" d="M 52.804688 10.472656 C 52.804688 9.691406 52.804688 8.964844 52.804688 8.21875 C 52.011719 8.378906 51.238281 8.535156 50.464844 8.691406 C 50.464844 9.4375 50.464844 10.152344 50.464844 10.902344 C 51.265625 10.753906 52.039062 10.613281 52.804688 10.472656 Z M 52.804688 10.472656 "/>
<path style=" stroke:none;fill-rule:nonzero;fill:url(#linear17);" d="M 44.449219 52.152344 C 44.449219 52.875 44.449219 53.5625 44.449219 54.265625 L 44.449219 54.269531 C 45.238281 54.394531 46.015625 54.519531 46.820312 54.648438 C 46.820312 53.90625 46.820312 53.203125 46.820312 52.5 C 46.019531 52.382812 45.246094 52.269531 44.449219 52.152344 Z M 44.449219 52.152344 "/>
<path style=" stroke:none;fill-rule:nonzero;fill:url(#linear18);" d="M 44.445312 56.917969 C 45.242188 57.0625 46.019531 57.203125 46.828125 57.347656 C 46.828125 56.617188 46.828125 55.917969 46.828125 55.199219 C 46.03125 55.066406 45.253906 54.9375 44.445312 54.804688 C 44.445312 55.527344 44.445312 56.214844 44.445312 56.917969 Z M 44.445312 56.917969 "/>
<path style=" stroke:none;fill-rule:nonzero;fill:url(#linear19);" d="M 44.4375 7.21875 C 44.425781 7.867188 44.429688 8.511719 44.429688 9.195312 C 45.261719 9.058594 46.039062 8.929688 46.832031 8.800781 C 46.832031 8.070312 46.832031 7.367188 46.832031 6.652344 C 46.089844 6.785156 45.359375 6.914062 44.636719 7.054688 C 44.558594 7.066406 44.441406 7.160156 44.4375 7.21875 Z M 44.4375 7.21875 "/>
<path style=" stroke:none;fill-rule:nonzero;fill:url(#linear20);" d="M 34.109375 51.035156 C 34.039062 51.027344 33.972656 51.015625 33.902344 51.007812 C 33.390625 50.972656 32.878906 50.941406 32.359375 50.902344 C 32.359375 51.585938 32.359375 52.210938 32.359375 52.878906 C 33.183594 52.945312 33.980469 53.011719 34.765625 53.078125 C 34.785156 53.015625 34.800781 52.992188 34.800781 52.972656 C 34.804688 52.585938 34.804688 52.195312 34.804688 51.808594 C 34.808594 51.101562 34.804688 51.101562 34.109375 51.035156 Z M 34.109375 51.035156 "/>
<path style=" stroke:none;fill-rule:nonzero;fill:url(#linear21);" d="M 10.414062 13.785156 C 9.609375 13.742188 8.820312 13.699219 8.019531 13.65625 C 8.019531 14.332031 8.019531 14.960938 8.019531 15.628906 C 8.828125 15.671875 9.617188 15.710938 10.414062 15.753906 C 10.414062 15.078125 10.414062 14.441406 10.414062 13.785156 Z M 10.414062 13.785156 "/>
<path style=" stroke:none;fill-rule:nonzero;fill:url(#linear22);" d="M 10.414062 21.140625 C 9.605469 21.140625 8.820312 21.140625 8.019531 21.140625 C 8.019531 21.753906 8.019531 22.386719 8.019531 23.09375 C 8.828125 23.09375 9.613281 23.09375 10.414062 23.09375 C 10.414062 22.46875 10.414062 21.824219 10.414062 21.140625 Z M 10.414062 21.140625 "/>
<path style=" stroke:none;fill-rule:nonzero;fill:url(#linear23);" d="M 8.019531 50.351562 C 8.832031 50.300781 9.617188 50.253906 10.421875 50.207031 C 10.421875 49.546875 10.421875 48.925781 10.421875 48.246094 C 9.597656 48.289062 8.808594 48.335938 8.019531 48.378906 C 8.019531 49.054688 8.019531 49.691406 8.019531 50.351562 Z M 8.019531 50.351562 "/>
<path style=" stroke:none;fill-rule:nonzero;fill:url(#linear24);" d="M 10.414062 38.453125 C 9.605469 38.453125 8.816406 38.453125 8.019531 38.453125 C 8.019531 39.132812 8.019531 39.765625 8.019531 40.378906 C 8.828125 40.378906 9.617188 40.378906 10.414062 40.378906 C 10.414062 39.695312 10.414062 39.0625 10.414062 38.453125 Z M 10.414062 38.453125 "/>
<path style=" stroke:none;fill-rule:nonzero;fill:url(#linear25);" d="M 22.609375 11.609375 C 21.785156 11.609375 20.996094 11.609375 20.203125 11.609375 C 20.203125 12.265625 20.203125 12.898438 20.203125 13.507812 C 21.023438 13.507812 21.8125 13.507812 22.609375 13.507812 C 22.609375 12.859375 22.609375 12.242188 22.609375 11.609375 Z M 22.609375 11.609375 "/>
<path style=" stroke:none;fill-rule:nonzero;fill:url(#linear26);" d="M 19.542969 11.601562 C 18.730469 11.601562 17.941406 11.601562 17.136719 11.601562 C 17.136719 12.246094 17.136719 12.867188 17.136719 13.519531 C 17.945312 13.519531 18.734375 13.519531 19.542969 13.519531 C 19.542969 12.890625 19.542969 12.269531 19.542969 11.601562 Z M 19.542969 11.601562 "/>
<path style=" stroke:none;fill-rule:nonzero;fill:url(#linear27);" d="M 17.144531 25.660156 C 17.953125 25.660156 18.742188 25.660156 19.539062 25.660156 C 19.539062 25.011719 19.539062 24.382812 19.539062 23.753906 C 18.722656 23.753906 17.933594 23.753906 17.144531 23.753906 C 17.144531 24.402344 17.144531 25.023438 17.144531 25.660156 Z M 17.144531 25.660156 "/>
<path style=" stroke:none;fill-rule:nonzero;fill:url(#linear28);" d="M 19.546875 38.339844 C 18.738281 38.339844 17.945312 38.339844 17.140625 38.339844 C 17.140625 38.988281 17.140625 39.609375 17.140625 40.242188 C 17.964844 40.242188 18.757812 40.242188 19.546875 40.242188 C 19.546875 39.589844 19.546875 38.964844 19.546875 38.339844 Z M 19.546875 38.339844 "/>
<path style=" stroke:none;fill-rule:nonzero;fill:url(#linear29);" d="M 14.085938 30.515625 C 14.894531 30.515625 15.6875 30.515625 16.492188 30.515625 C 16.492188 29.878906 16.492188 29.253906 16.492188 28.597656 C 15.675781 28.597656 14.886719 28.597656 14.085938 28.597656 C 14.085938 29.246094 14.085938 29.867188 14.085938 30.515625 Z M 14.085938 30.515625 "/>
<path style=" stroke:none;fill-rule:nonzero;fill:url(#linear30);" d="M 17.148438 30.519531 C 17.96875 30.519531 18.757812 30.519531 19.546875 30.519531 C 19.546875 29.871094 19.546875 29.246094 19.546875 28.613281 C 18.734375 28.613281 17.941406 28.613281 17.148438 28.613281 C 17.148438 29.265625 17.148438 29.894531 17.148438 30.519531 Z M 17.148438 30.519531 "/>
<path style=" stroke:none;fill-rule:nonzero;fill:url(#linear31);" d="M 13.4375 26.132812 C 12.636719 26.132812 11.847656 26.132812 11.050781 26.132812 C 11.050781 26.769531 11.050781 27.394531 11.050781 28.050781 C 11.859375 28.050781 12.648438 28.050781 13.4375 28.050781 C 13.4375 27.414062 13.4375 26.789062 13.4375 26.132812 Z M 13.4375 26.132812 "/>
<path style=" stroke:none;fill-rule:nonzero;fill:url(#linear32);" d="M 16.488281 33.488281 C 15.671875 33.488281 14.878906 33.488281 14.082031 33.488281 C 14.082031 34.136719 14.082031 34.761719 14.082031 35.398438 C 14.886719 35.398438 15.679688 35.398438 16.488281 35.398438 C 16.488281 34.757812 16.488281 34.132812 16.488281 33.488281 Z M 16.488281 33.488281 "/>
<path style=" stroke:none;fill-rule:nonzero;fill:url(#linear33);" d="M 17.152344 35.382812 C 17.972656 35.382812 18.761719 35.382812 19.554688 35.382812 C 19.554688 34.746094 19.554688 34.132812 19.554688 33.484375 C 18.734375 33.484375 17.941406 33.484375 17.152344 33.484375 C 17.152344 34.132812 17.152344 34.761719 17.152344 35.382812 Z M 17.152344 35.382812 "/>
<path style=" stroke:none;fill-rule:nonzero;fill:url(#linear34);" d="M 11.054688 37.859375 C 11.859375 37.859375 12.648438 37.859375 13.445312 37.859375 C 13.445312 37.207031 13.445312 36.585938 13.445312 35.953125 C 12.621094 35.953125 11.835938 35.953125 11.054688 35.953125 C 11.054688 36.617188 11.054688 37.238281 11.054688 37.859375 Z M 11.054688 37.859375 "/>
<path style=" stroke:none;fill-rule:nonzero;fill:url(#linear35);" d="M 13.4375 32.972656 C 13.4375 32.320312 13.4375 31.6875 13.4375 31.046875 C 12.632812 31.046875 11.847656 31.046875 11.058594 31.046875 C 11.058594 31.703125 11.058594 32.332031 11.058594 32.972656 C 11.867188 32.972656 12.644531 32.972656 13.4375 32.972656 Z M 13.4375 32.972656 "/>
<path style=" stroke:none;fill-rule:nonzero;fill:url(#linear36);" d="M 13.4375 38.410156 C 12.628906 38.410156 11.84375 38.410156 11.050781 38.410156 C 11.050781 39.078125 11.050781 39.699219 11.050781 40.308594 C 11.859375 40.308594 12.644531 40.308594 13.4375 40.308594 C 13.4375 39.640625 13.4375 39.019531 13.4375 38.410156 Z M 13.4375 38.410156 "/>
<path style=" stroke:none;fill-rule:nonzero;fill:url(#linear37);" d="M 11.050781 52.632812 C 11.859375 52.597656 12.648438 52.5625 13.433594 52.523438 C 13.433594 51.859375 13.433594 51.234375 13.433594 50.570312 C 12.628906 50.605469 11.839844 50.644531 11.050781 50.679688 C 11.050781 51.351562 11.050781 51.976562 11.050781 52.632812 Z M 11.050781 52.632812 "/>
<path style=" stroke:none;fill-rule:nonzero;fill:url(#linear38);" d="M 16.496094 45.675781 C 15.671875 45.675781 14.878906 45.675781 14.09375 45.675781 C 14.09375 46.347656 14.09375 46.976562 14.09375 47.566406 C 14.910156 47.566406 15.699219 47.566406 16.496094 47.566406 C 16.496094 46.902344 16.496094 46.289062 16.496094 45.675781 Z M 16.496094 45.675781 "/>
<path style=" stroke:none;fill-rule:nonzero;fill:url(#linear39);" d="M 13.425781 13.878906 C 12.625 13.878906 11.847656 13.878906 11.050781 13.878906 C 11.050781 14.484375 11.050781 15.105469 11.050781 15.808594 C 11.859375 15.808594 12.648438 15.808594 13.425781 15.808594 C 13.425781 15.191406 13.425781 14.5625 13.425781 13.878906 Z M 13.425781 13.878906 "/>
<path style=" stroke:none;fill-rule:nonzero;fill:url(#linear40);" d="M 16.488281 40.800781 C 15.679688 40.800781 14.890625 40.800781 14.085938 40.800781 C 14.085938 41.457031 14.085938 42.078125 14.085938 42.699219 C 14.910156 42.699219 15.699219 42.699219 16.488281 42.699219 C 16.488281 42.035156 16.488281 41.414062 16.488281 40.800781 Z M 16.488281 40.800781 "/>
<path style=" stroke:none;fill-rule:nonzero;fill:url(#linear41);" d="M 11.054688 45.207031 C 11.863281 45.207031 12.652344 45.207031 13.4375 45.207031 C 13.4375 44.523438 13.4375 43.902344 13.4375 43.296875 C 12.632812 43.296875 11.847656 43.296875 11.054688 43.296875 C 11.054688 43.980469 11.054688 44.613281 11.054688 45.207031 Z M 11.054688 45.207031 "/>
<path style=" stroke:none;fill-rule:nonzero;fill:url(#linear42);" d="M 22.597656 50.484375 C 21.785156 50.484375 20.992188 50.484375 20.195312 50.484375 C 20.195312 51.128906 20.195312 51.75 20.195312 52.394531 C 21.027344 52.394531 21.816406 52.394531 22.597656 52.394531 C 22.597656 51.75 22.597656 51.128906 22.597656 50.484375 Z M 22.597656 50.484375 "/>
<path style=" stroke:none;fill-rule:nonzero;fill:url(#linear43);" d="M 17.144531 52.394531 C 17.960938 52.394531 18.75 52.394531 19.546875 52.394531 C 19.546875 51.742188 19.546875 51.121094 19.546875 50.488281 C 18.742188 50.488281 17.953125 50.488281 17.144531 50.488281 C 17.144531 51.160156 17.144531 51.78125 17.144531 52.394531 Z M 17.144531 52.394531 "/>
<path style=" stroke:none;fill-rule:nonzero;fill:url(#linear44);" d="M 16.492188 18.863281 C 15.6875 18.863281 14.898438 18.863281 14.089844 18.863281 C 14.089844 19.5 14.089844 20.117188 14.089844 20.777344 C 14.902344 20.777344 15.691406 20.777344 16.492188 20.777344 C 16.492188 20.148438 16.492188 19.523438 16.492188 18.863281 Z M 16.492188 18.863281 "/>
<path style=" stroke:none;fill-rule:nonzero;fill:url(#linear45);" d="M 13.433594 42.765625 C 13.433594 42.085938 13.433594 41.457031 13.433594 40.839844 C 12.632812 40.839844 11.855469 40.839844 11.0625 40.839844 C 11.0625 41.535156 11.0625 42.164062 11.0625 42.765625 C 11.871094 42.765625 12.648438 42.765625 13.433594 42.765625 Z M 13.433594 42.765625 "/>
<path style=" stroke:none;fill-rule:nonzero;fill:url(#linear46);" d="M 16.488281 50.546875 C 15.679688 50.546875 14.890625 50.546875 14.085938 50.546875 C 14.085938 51.214844 14.085938 51.835938 14.085938 52.441406 C 14.90625 52.441406 15.695312 52.441406 16.488281 52.441406 C 16.488281 51.769531 16.488281 51.144531 16.488281 50.546875 Z M 16.488281 50.546875 "/>
<path style=" stroke:none;fill-rule:nonzero;fill:url(#linear47);" d="M 14.09375 54.886719 C 14.914062 54.886719 15.703125 54.886719 16.5 54.886719 C 16.5 54.214844 16.5 53.597656 16.5 52.980469 C 15.679688 52.980469 14.886719 52.980469 14.09375 52.980469 C 14.09375 53.664062 14.09375 54.296875 14.09375 54.886719 Z M 14.09375 54.886719 "/>
<path style=" stroke:none;fill-rule:nonzero;fill:url(#linear48);" d="M 14.085938 50.007812 C 14.898438 50.007812 15.695312 50.007812 16.484375 50.007812 C 16.484375 49.332031 16.484375 48.710938 16.484375 48.109375 C 15.675781 48.109375 14.882812 48.109375 14.085938 48.109375 C 14.085938 48.777344 14.085938 49.398438 14.085938 50.007812 Z M 14.085938 50.007812 "/>
<path style=" stroke:none;fill-rule:nonzero;fill:url(#linear49);" d="M 17.140625 23.230469 C 17.949219 23.230469 18.738281 23.230469 19.546875 23.230469 C 19.546875 22.605469 19.546875 21.980469 19.546875 21.320312 C 18.726562 21.320312 17.9375 21.320312 17.140625 21.320312 C 17.140625 21.960938 17.140625 22.578125 17.140625 23.230469 Z M 17.140625 23.230469 "/>
<path style=" stroke:none;fill-rule:nonzero;fill:url(#linear50);" d="M 14.097656 23.210938 C 14.90625 23.210938 15.6875 23.210938 16.484375 23.210938 C 16.484375 22.558594 16.484375 21.941406 16.484375 21.292969 C 15.675781 21.292969 14.882812 21.292969 14.097656 21.292969 C 14.097656 21.933594 14.097656 22.5625 14.097656 23.210938 Z M 14.097656 23.210938 "/>
<path style=" stroke:none;fill-rule:nonzero;fill:url(#linear51);" d="M 17.144531 32.945312 C 17.953125 32.945312 18.742188 32.945312 19.546875 32.945312 C 19.546875 32.308594 19.546875 31.6875 19.546875 31.046875 C 18.742188 31.046875 17.953125 31.046875 17.144531 31.046875 C 17.144531 31.695312 17.144531 32.316406 17.144531 32.945312 Z M 17.144531 32.945312 "/>
<path style=" stroke:none;fill-rule:nonzero;fill:url(#linear52);" d="M 16.484375 26.164062 C 15.675781 26.164062 14.882812 26.164062 14.085938 26.164062 C 14.085938 26.8125 14.085938 27.433594 14.085938 28.074219 C 14.890625 28.074219 15.679688 28.074219 16.484375 28.074219 C 16.484375 27.4375 16.484375 26.804688 16.484375 26.164062 Z M 16.484375 26.164062 "/>
<path style=" stroke:none;fill-rule:nonzero;fill:url(#linear53);" d="M 19.542969 40.773438 C 18.738281 40.773438 17.953125 40.773438 17.144531 40.773438 C 17.144531 41.429688 17.144531 42.050781 17.144531 42.671875 C 17.960938 42.671875 18.75 42.671875 19.542969 42.671875 C 19.542969 42.023438 19.542969 41.402344 19.542969 40.773438 Z M 19.542969 40.773438 "/>
<path style=" stroke:none;fill-rule:nonzero;fill:url(#linear54);" d="M 26.320312 18.195312 C 27.125 18.160156 27.902344 18.121094 28.699219 18.089844 C 28.699219 17.433594 28.699219 16.8125 28.699219 16.152344 C 27.902344 16.1875 27.125 16.226562 26.320312 16.265625 C 26.320312 16.925781 26.320312 17.546875 26.320312 18.195312 Z M 26.320312 18.195312 "/>
<path style=" stroke:none;fill-rule:nonzero;fill:url(#linear55);" d="M 25.410156 25.628906 C 26.214844 25.628906 26.992188 25.628906 27.765625 25.628906 C 27.765625 24.992188 27.765625 24.386719 27.765625 23.773438 C 26.96875 23.773438 26.195312 23.773438 25.410156 23.773438 C 25.410156 24.417969 25.410156 25.023438 25.410156 25.628906 Z M 25.410156 25.628906 "/>
<path style=" stroke:none;fill-rule:nonzero;fill:url(#linear56);" d="M 25.640625 16.351562 C 24.847656 16.351562 24.082031 16.351562 23.296875 16.351562 C 23.296875 17.027344 23.296875 17.648438 23.296875 18.234375 C 24.089844 18.234375 24.859375 18.234375 25.640625 18.234375 C 25.640625 17.5625 25.640625 16.941406 25.640625 16.351562 Z M 25.640625 16.351562 "/>
<path style=" stroke:none;fill-rule:nonzero;fill:url(#linear57);" d="M 25.121094 32.941406 C 25.925781 32.941406 26.695312 32.941406 27.46875 32.941406 C 27.46875 32.300781 27.46875 31.679688 27.46875 31.054688 C 26.675781 31.054688 25.898438 31.054688 25.121094 31.054688 C 25.121094 31.695312 25.121094 32.308594 25.121094 32.941406 Z M 25.121094 32.941406 "/>
<path style=" stroke:none;fill-rule:nonzero;fill:url(#linear58);" d="M 50.496094 44.511719 C 51.273438 44.601562 52.027344 44.6875 52.800781 44.773438 C 52.800781 44.011719 52.800781 43.277344 52.800781 42.5 C 52.015625 42.425781 51.253906 42.351562 50.496094 42.28125 C 50.496094 43.054688 50.496094 43.777344 50.496094 44.511719 Z M 50.496094 44.511719 "/>
<path style=" stroke:none;fill-rule:nonzero;fill:url(#linear59);" d="M 55.910156 40.851562 C 55.761719 39.378906 55.359375 37.980469 54.609375 36.691406 C 54.46875 36.449219 54.121094 36.238281 53.910156 36.148438 C 53.769531 36.089844 52.558594 36.050781 52.140625 36.03125 C 51.589844 36.011719 50.570312 36.007812 50 35.980469 C 50 35.167969 49.988281 34.390625 50.011719 33.617188 C 50.011719 33.378906 49.929688 33.257812 49.710938 33.199219 C 48.761719 32.917969 48.359375 32.671875 47.398438 32.421875 C 46.851562 32.269531 46.570312 32.152344 46 32.050781 L 46 31.269531 C 46 30.382812 46 30.382812 46.871094 30.082031 C 48.378906 29.5625 49.621094 29.011719 50.898438 28.03125 C 52.328125 26.921875 53.847656 25.484375 54.457031 23.792969 C 55.007812 22.273438 55.046875 20.683594 54.9375 19.09375 C 54.847656 17.875 54.566406 16.695312 53.976562 15.605469 C 53.527344 14.742188 52.867188 14.054688 52.027344 13.554688 C 50.515625 12.648438 48.425781 12.324219 46.574219 12.324219 C 46.261719 12.324219 45.957031 12.332031 45.660156 12.351562 C 45.070312 12.382812 44.46875 12.421875 43.871094 12.460938 C 43.851562 12.261719 43.839844 12.089844 43.828125 11.921875 C 43.039062 12.019531 42.28125 12.109375 41.511719 12.210938 L 41.511719 10.179688 C 42.289062 10.070312 43.058594 9.960938 43.839844 9.839844 L 43.839844 7.21875 C 41.019531 7.609375 38.210938 8 35.390625 8.378906 L 35.390625 13.398438 C 33.609375 13.480469 31.871094 13.558594 30.101562 13.640625 L 30.101562 11.640625 C 30.859375 11.589844 31.601562 11.550781 32.328125 11.511719 L 32.328125 8.679688 C 29.289062 8.851562 26.269531 9.011719 23.21875 9.179688 L 23.21875 14 L 17.140625 14 L 17.140625 16.46875 L 19.511719 16.46875 L 19.511719 18.390625 L 17.148438 18.390625 L 17.148438 20.820312 L 20.191406 20.820312 L 20.191406 28.628906 L 22.511719 28.628906 L 22.511719 30.53125 L 20.199219 30.53125 L 20.199219 33.5 L 22.519531 33.5 L 22.519531 35.390625 L 20.171875 35.390625 L 20.171875 43.191406 L 17.148438 43.191406 L 17.148438 48.109375 L 19.488281 48.109375 L 19.488281 50 L 23.25 50 L 23.25 54.839844 C 25.308594 54.929688 27.320312 55.019531 29.390625 55.109375 L 29.390625 53.25 C 30.199219 53.320312 30.949219 53.378906 31.75 53.449219 L 31.75 50.339844 C 32.980469 50.441406 34.179688 50.53125 35.398438 50.621094 L 35.398438 55.609375 C 38.238281 56 41.03125 56.390625 43.859375 56.769531 L 43.859375 51.539062 C 44.371094 51.570312 44.820312 51.601562 45.261719 51.628906 C 45.796875 51.667969 46.355469 51.691406 46.917969 51.691406 C 47.992188 51.691406 49.082031 51.601562 50.078125 51.339844 C 52.878906 50.601562 54.78125 48.960938 55.550781 46.140625 C 56.019531 44.398438 56.089844 42.628906 55.910156 40.851562 Z M 53.621094 45.613281 C 53.066406 47.644531 51.816406 48.8125 49.570312 49.40625 C 48.847656 49.597656 47.953125 49.695312 46.917969 49.695312 C 46.445312 49.695312 45.949219 49.675781 45.394531 49.636719 C 44.949219 49.605469 41.859375 49.421875 41.859375 49.421875 L 41.859375 54.480469 C 40.664062 54.320312 37.398438 53.867188 37.398438 53.867188 L 37.398438 48.761719 L 29.75 48.171875 L 29.75 51.273438 L 28.707031 51.183594 C 28.707031 50.964844 28.707031 50.742188 28.707031 50.519531 C 27.902344 50.519531 27.113281 50.519531 26.324219 50.519531 C 26.324219 51.152344 26.324219 51.753906 26.324219 52.382812 C 26.6875 52.382812 27.035156 52.382812 27.390625 52.382812 L 27.390625 53.019531 L 25.25 52.925781 L 25.25 48 L 21.488281 48 L 21.488281 47.5625 C 21.859375 47.5625 22.234375 47.5625 22.605469 47.5625 C 22.605469 46.90625 22.605469 46.292969 22.605469 45.683594 C 21.792969 45.683594 21.023438 45.683594 20.242188 45.683594 C 20.242188 45.828125 20.242188 45.96875 20.242188 46.109375 L 19.148438 46.109375 L 19.148438 45.191406 L 22.171875 45.191406 L 22.171875 37.390625 L 24.519531 37.390625 L 24.511719 26.628906 L 22.191406 26.628906 L 22.191406 23.210938 C 22.914062 23.210938 23.628906 23.210938 24.367188 23.210938 C 24.367188 22.582031 24.367188 21.972656 24.367188 21.339844 C 23.628906 21.339844 22.910156 21.339844 22.191406 21.339844 L 22.191406 18.820312 L 21.511719 18.820312 L 21.511719 16 L 25.21875 16 L 25.21875 11.074219 C 26.0625 11.027344 27.980469 10.921875 28.101562 10.914062 L 28.101562 15.734375 L 37.390625 15.3125 L 37.390625 10.128906 C 38.097656 10.03125 38.804688 9.933594 39.511719 9.835938 L 39.511719 14.488281 C 39.511719 14.488281 41.941406 14.171875 42.03125 14.160156 L 42.074219 14.585938 L 44.003906 14.457031 C 44.59375 14.417969 45.183594 14.378906 45.777344 14.347656 C 46.035156 14.332031 46.300781 14.324219 46.574219 14.324219 C 48.382812 14.324219 49.996094 14.667969 51.003906 15.273438 C 51.476562 15.554688 51.835938 15.941406 52.113281 16.410156 C 51.5625 16.492188 51.023438 16.570312 50.496094 16.644531 C 50.496094 17.40625 50.496094 18.128906 50.496094 18.871094 C 51.285156 18.777344 52.046875 18.683594 52.804688 18.59375 C 52.804688 18.476562 52.804688 18.363281 52.804688 18.25 C 52.867188 18.5625 52.914062 18.886719 52.941406 19.234375 C 53.03125 20.507812 52.984375 21.503906 52.792969 22.359375 C 52.792969 22.28125 52.792969 22.203125 52.792969 22.128906 C 52.011719 22.199219 51.253906 22.269531 50.484375 22.339844 C 50.484375 23.078125 50.484375 23.789062 50.484375 24.5625 C 50.921875 24.535156 51.335938 24.507812 51.761719 24.480469 C 51.257812 25.101562 50.566406 25.757812 49.683594 26.445312 C 48.589844 27.28125 47.546875 27.734375 46.21875 28.191406 C 44.539062 28.769531 44 29.519531 44 31.269531 L 44 33.730469 L 45.652344 34.019531 C 45.921875 34.066406 46.085938 34.117188 46.355469 34.199219 C 46.511719 34.246094 46.675781 34.296875 46.894531 34.355469 C 47.3125 34.464844 47.976562 34.71875 47.996094 34.726562 C 47.996094 34.941406 48 37.878906 48 37.878906 C 48 37.878906 52.8125 38.0625 53.089844 38.074219 C 53.53125 38.957031 53.808594 39.933594 53.921875 41.050781 C 54.09375 42.742188 53.992188 44.238281 53.621094 45.613281 Z M 53.621094 45.613281 "/>
<path style=" stroke:none;fill-rule:nonzero;fill:url(#linear60);" d="M 36.375 30.6875 L 36.402344 30.6875 L 36.433594 30.683594 C 42.5 30.21875 45.515625 27.570312 45.398438 22.820312 L 45.398438 22.679688 C 45.375 21.214844 45.3125 17.324219 38.9375 17.324219 C 38.78125 17.324219 38.621094 17.328125 38.457031 17.332031 C 37.90625 17.34375 31.144531 17.65625 30.800781 17.691406 L 29 17.871094 L 29 30.898438 L 31 30.898438 C 31.15625 30.898438 36.332031 30.691406 36.375 30.6875 Z M 31 19.679688 C 31.199219 19.660156 37.738281 19.351562 38.511719 19.328125 C 38.65625 19.324219 38.800781 19.324219 38.9375 19.324219 C 43.492188 19.324219 43.371094 21.363281 43.398438 22.859375 C 43.46875 25.691406 42.269531 28.230469 36.28125 28.691406 C 36.070312 28.699219 31.070312 28.898438 31 28.898438 Z M 31 19.679688 "/>
<path style=" stroke:none;fill-rule:nonzero;fill:url(#linear61);" d="M 46.199219 39.007812 C 45.105469 35.140625 43.398438 33.699219 35.984375 33.304688 C 35.3125 33.273438 31.234375 33.179688 31 33.179688 L 29 33.179688 L 28.964844 46.398438 L 30.964844 46.398438 C 31.0625 46.402344 31.558594 46.421875 32.253906 46.449219 C 32.335938 46.453125 32.421875 46.457031 32.507812 46.460938 C 32.507812 46.882812 32.507812 47.304688 32.507812 47.738281 C 32.902344 47.753906 34.464844 47.828125 34.859375 47.84375 C 34.859375 47.40625 34.859375 46.984375 34.859375 46.554688 C 36.464844 46.617188 37.871094 46.664062 38.574219 46.675781 C 38.574219 47.152344 38.574219 47.621094 38.574219 48.089844 C 38.773438 48.105469 40.34375 48.226562 40.925781 48.269531 C 40.925781 47.671875 40.925781 47.105469 40.925781 46.527344 C 43.785156 46.125 45.546875 44.847656 46.140625 42.65625 C 46.390625 41.730469 46.632812 40.507812 46.261719 39.230469 Z M 44.210938 42.128906 C 44.058594 42.671875 43.648438 44.679688 38.839844 44.679688 C 37.660156 44.679688 31.171875 44.398438 31 44.398438 L 31 35.179688 C 31.148438 35.179688 35.191406 35.269531 35.898438 35.300781 C 43.398438 35.699219 43.578125 37.121094 44.339844 39.78125 C 44.558594 40.539062 44.421875 41.359375 44.210938 42.128906 Z M 44.210938 42.128906 "/>
<path style=" stroke:none;fill-rule:nonzero;fill:url(#linear62);" d="M 47.640625 3.496094 C 47.558594 3.515625 47.445312 3.632812 47.441406 3.710938 C 47.429688 4.449219 47.433594 5.1875 47.433594 5.984375 C 48.230469 5.820312 48.960938 5.671875 49.691406 5.515625 C 49.75 5.5 49.835938 5.414062 49.835938 5.359375 C 49.84375 4.578125 49.84375 3.800781 49.84375 3 C 49.078125 3.171875 48.355469 3.324219 47.640625 3.496094 Z M 47.640625 3.496094 "/>
<path style=" stroke:none;fill-rule:nonzero;fill:url(#linear63);" d="M 38.464844 58.84375 C 39.269531 58.96875 40.050781 59.085938 40.851562 59.210938 L 40.851562 59.207031 C 40.851562 58.421875 40.851562 57.667969 40.851562 56.871094 C 40.042969 56.757812 39.261719 56.648438 38.464844 56.539062 C 38.464844 57.324219 38.464844 58.082031 38.464844 58.84375 Z M 38.464844 58.84375 "/>
<path style=" stroke:none;fill-rule:nonzero;fill:url(#linear64);" d="M 41.5625 4.671875 C 41.515625 4.683594 41.449219 4.785156 41.449219 4.847656 C 41.441406 5.5625 41.445312 6.28125 41.445312 7.035156 C 42.210938 6.914062 42.917969 6.808594 43.621094 6.683594 C 43.703125 6.667969 43.839844 6.5625 43.839844 6.496094 C 43.859375 5.765625 43.851562 5.039062 43.851562 4.269531 C 43.058594 4.40625 42.3125 4.535156 41.5625 4.671875 Z M 41.5625 4.671875 "/>
<path style=" stroke:none;fill-rule:nonzero;fill:url(#linear65);" d="M 29.332031 8.367188 C 30.144531 8.304688 30.929688 8.246094 31.734375 8.1875 C 31.734375 7.433594 31.734375 6.707031 31.734375 5.949219 C 30.90625 6.015625 30.121094 6.085938 29.332031 6.152344 C 29.332031 6.902344 29.332031 7.617188 29.332031 8.367188 Z M 29.332031 8.367188 "/>
<path style=" stroke:none;fill-rule:nonzero;fill:url(#linear66);" d="M 26.269531 57.484375 C 26.269531 57.554688 26.414062 57.671875 26.503906 57.679688 C 26.859375 57.71875 27.214844 57.730469 27.574219 57.746094 C 27.945312 57.765625 28.320312 57.785156 28.699219 57.800781 C 28.699219 57.050781 28.699219 56.335938 28.699219 55.589844 C 27.871094 55.546875 27.082031 55.507812 26.257812 55.464844 C 26.257812 56.171875 26.25 56.828125 26.269531 57.484375 Z M 26.269531 57.484375 "/>
<path style=" stroke:none;fill-rule:nonzero;fill:url(#linear67);" d="M 17.136719 8.648438 C 17.945312 8.648438 18.734375 8.648438 19.539062 8.648438 C 19.539062 7.933594 19.539062 7.222656 19.539062 6.484375 C 18.722656 6.484375 17.933594 6.484375 17.136719 6.484375 C 17.136719 7.214844 17.136719 7.917969 17.136719 8.648438 Z M 17.136719 8.648438 "/>
<path style=" stroke:none;fill-rule:nonzero;fill:url(#linear68);" d="M 44.441406 9.730469 C 44.441406 10.4375 44.441406 11.117188 44.441406 11.847656 C 45.261719 11.726562 46.046875 11.609375 46.824219 11.496094 C 46.824219 10.769531 46.824219 10.074219 46.824219 9.351562 L 46.824219 9.347656 C 46.011719 9.476562 45.234375 9.605469 44.441406 9.730469 Z M 44.441406 9.730469 "/>
<path style=" stroke:none;fill-rule:nonzero;fill:url(#linear69);" d="M 8.019531 52.832031 C 8.835938 52.777344 9.621094 52.722656 10.417969 52.667969 C 10.417969 52 10.417969 51.371094 10.417969 50.707031 C 9.609375 50.757812 8.824219 50.808594 8.019531 50.855469 C 8.019531 51.519531 8.019531 52.152344 8.019531 52.832031 Z M 8.019531 52.832031 "/>
<path style=" stroke:none;fill-rule:nonzero;fill:url(#linear70);" d="M 8.1875 20.59375 C 8.921875 20.601562 9.652344 20.597656 10.410156 20.597656 C 10.410156 20.003906 10.410156 19.367188 10.410156 18.671875 C 9.601562 18.671875 8.820312 18.671875 8 18.671875 C 8 19.242188 7.996094 19.84375 8.007812 20.441406 C 8.011719 20.496094 8.125 20.589844 8.1875 20.59375 Z M 8.1875 20.59375 "/>
<path style=" stroke:none;fill-rule:nonzero;fill:url(#linear71);" d="M 8.023438 28.027344 C 8.839844 28.027344 9.628906 28.027344 10.421875 28.027344 C 10.421875 27.375 10.421875 26.753906 10.421875 26.074219 C 9.601562 26.074219 8.820312 26.074219 8.023438 26.074219 C 8.023438 26.71875 8.023438 27.359375 8.023438 28.027344 Z M 8.023438 28.027344 "/>
<path style=" stroke:none;fill-rule:nonzero;fill:url(#linear72);" d="M 8.027344 37.902344 C 8.84375 37.902344 9.628906 37.902344 10.425781 37.902344 C 10.425781 37.234375 10.425781 36.621094 10.425781 35.988281 C 9.601562 35.988281 8.8125 35.988281 8.027344 35.988281 C 8.027344 36.660156 8.027344 37.300781 8.027344 37.902344 Z M 8.027344 37.902344 "/>
<path style=" stroke:none;fill-rule:nonzero;fill:url(#linear73);" d="M 11.050781 47.671875 C 11.851562 47.671875 12.628906 47.671875 13.433594 47.671875 C 13.433594 46.972656 13.433594 46.351562 13.433594 45.761719 C 12.628906 45.761719 11.84375 45.761719 11.050781 45.761719 C 11.050781 46.441406 11.050781 47.0625 11.050781 47.671875 Z M 11.050781 47.671875 "/>
<path style=" stroke:none;fill-rule:nonzero;fill:url(#linear74);" d="M 13.429688 16.335938 C 12.621094 16.335938 11.835938 16.335938 11.046875 16.335938 C 11.046875 16.960938 11.046875 17.570312 11.046875 18.253906 C 11.859375 18.253906 12.636719 18.253906 13.429688 18.253906 C 13.429688 17.636719 13.429688 17.011719 13.429688 16.335938 Z M 13.429688 16.335938 "/>
<path style=" stroke:none;fill-rule:nonzero;fill:url(#linear75);" d="M 13.425781 25.609375 C 13.425781 24.960938 13.425781 24.332031 13.425781 23.671875 C 12.617188 23.671875 11.839844 23.671875 11.0625 23.671875 C 11.0625 24.324219 11.0625 24.957031 11.0625 25.609375 C 11.859375 25.609375 12.632812 25.609375 13.425781 25.609375 Z M 13.425781 25.609375 "/>
<path style=" stroke:none;fill-rule:nonzero;fill:url(#linear76);" d="M 14.082031 37.820312 C 14.898438 37.820312 15.691406 37.820312 16.5 37.820312 C 16.5 37.167969 16.5 36.558594 16.5 35.925781 C 15.675781 35.925781 14.886719 35.925781 14.082031 35.925781 C 14.082031 36.578125 14.082031 37.199219 14.082031 37.820312 Z M 14.082031 37.820312 "/>
<path style=" stroke:none;fill-rule:nonzero;fill:url(#linear77);" d="M 16.496094 13.988281 C 15.695312 13.988281 14.90625 13.988281 14.089844 13.988281 C 14.089844 14.605469 14.089844 15.238281 14.089844 15.90625 C 14.902344 15.90625 15.691406 15.90625 16.496094 15.90625 C 16.496094 15.28125 16.496094 14.660156 16.496094 13.988281 Z M 16.496094 13.988281 "/>
<path style=" stroke:none;fill-rule:nonzero;fill:url(#linear78);" d="M 20.199219 54.824219 C 21.015625 54.824219 21.804688 54.824219 22.597656 54.824219 C 22.597656 54.179688 22.597656 53.558594 22.597656 52.917969 C 21.789062 52.917969 21.011719 52.917969 20.199219 52.917969 C 20.199219 53.5625 20.199219 54.179688 20.199219 54.824219 Z M 20.199219 54.824219 "/>
<path style=" stroke:none;fill-rule:nonzero;fill:url(#linear79);" d="M 22.59375 9.191406 C 21.773438 9.191406 20.980469 9.191406 20.191406 9.191406 C 20.191406 9.835938 20.191406 10.445312 20.191406 11.070312 C 21.023438 11.070312 21.816406 11.070312 22.59375 11.070312 C 22.59375 10.414062 22.59375 9.792969 22.59375 9.191406 Z M 22.59375 9.191406 "/>
<path style=" stroke:none;fill-rule:nonzero;fill:url(#linear80);" d="M 22.667969 42.660156 C 23.46875 42.660156 24.246094 42.660156 25.042969 42.660156 C 25.042969 42.027344 25.042969 41.417969 25.042969 40.800781 C 24.230469 40.800781 23.453125 40.800781 22.667969 40.800781 C 22.667969 41.441406 22.667969 42.050781 22.667969 42.660156 Z M 22.667969 42.660156 "/>
<path style=" stroke:none;fill-rule:nonzero;fill:url(#linear81);" d="M 22.671875 40.222656 C 23.472656 40.222656 24.253906 40.222656 25.042969 40.222656 C 25.042969 39.589844 25.042969 38.984375 25.042969 38.363281 C 24.234375 38.363281 23.460938 38.363281 22.671875 38.363281 C 22.671875 39.007812 22.671875 39.617188 22.671875 40.222656 Z M 22.671875 40.222656 "/>
</g>
</svg>
