<svg width="430" height="430" xmlns="http://www.w3.org/2000/svg">
 <title/>

 <g>
  <title>background</title>
  <rect fill="none" id="canvas_background" height="402" width="582" y="-1" x="-1"/>
 </g>
 <g>
  <title>Layer 1</title>
  <circle stroke="null" id="svg_1" r="212.429993" fill="#fefefe" cy="214.999998" cx="214.999968"/>
  <path stroke="null" id="svg_2" fill="#2e2e2e" d="m210.439804,194.941899l76.854827,0s6.346113,45.34132 -22.721058,74.23195c0,0 -39.457698,40.316863 -98.578482,9.079283c0,0 -48.456245,-30.234892 -35.753058,-88.357727c0,0 10.017871,-54.751159 73.511883,-61.803029c0,0 38.767188,-4.032788 58.813891,20.825053l-22.721058,23.513579s-23.389646,-22.841448 -55.470947,-4.407419c0,0 -30.075534,15.117446 -18.380711,60.800341c0,0 12.363412,28.218498 45.113301,28.549055c0,0 32.749889,1.344263 41.430583,-32.240268l-42.099172,0l0,-30.190818z"/>
  <polygon id="svg_3" points="378,195.92999267578125 352.6999816894531,195.92999267578125 352.6999816894531,170.6199951171875 333.5899963378906,170.6199951171875 333.5899963378906,195.92999267578125 308.28997802734375,195.92999267578125 308.28997802734375,215.04000854492188 333.5899963378906,215.04000854492188 333.5899963378906,240.33999633789062 352.6999816894531,240.33999633789062 352.6999816894531,215.04000854492188 378,215.04000854492188 378,195.92999267578125 " fill="#2e2e2e"/>
 </g>
</svg>