<svg width="512" height="512" xmlns="http://www.w3.org/2000/svg">
 <title/>

 <g>
  <title>background</title>
  <rect fill="none" id="canvas_background" height="402" width="582" y="-1" x="-1"/>
 </g>
 <g>
  <title>Layer 1</title>
  <circle stroke="null" transform="rotate(-0.24083757400512695 255.51255798338593,256.30389404297375) " id="svg_1" r="253.505219" fill="#fefefe" cy="256.303897" cx="255.512567"/>
  <rect stroke="null" id="svg_2" y="189.429996" x="161.75" width="46.749996" height="153.270002" fill="#2e2e2e"/>
  <circle stroke="null" id="svg_3" r="22.469999" fill="#2e2e2e" cy="146.599998" cx="185.629998"/>
  <path stroke="null" id="svg_4" fill="#2e2e2e" d="m331.811257,196.740456s-12.431352,-4.165193 -31.811333,-1.332862a41.726404,43.020488 0 0 0 -19.426152,8.032871a32.538516,33.54765 0 0 0 -11.207839,15.268406l0,-23.087067l-44.715931,0l0,149.07819l44.715931,0l0,-81.197453c0,-12.305169 6.383043,-24.134315 17.233063,-29.275353a29.052658,29.953684 0 0 1 9.234059,-2.59432s10.192093,-2.106397 19.126045,8.258982a30.079947,31.012833 0 0 1 7.052513,20.671255l0,84.136889l44.727474,0l0,-102.963559c2.043036,-37.581937 -34.927828,-44.99598 -34.927828,-44.99598z"/>
 </g>
</svg>