<svg width="512" height="512" xmlns="http://www.w3.org/2000/svg">
 <title/>

 <g>
  <title>background</title>
  <rect fill="none" id="canvas_background" height="402" width="582" y="-1" x="-1"/>
 </g>
 <g>
  <title>Layer 1</title>
  <circle stroke="null" id="svg_1" r="254.430004" fill="#fefefe" cy="254.999998" cx="256.499986"/>
  <path stroke="null" id="svg_2" fill="#2e2e2e" d="m339.562777,178.67102s18.332734,-5.130976 31.268448,-12.085086a44.653914,45.523764 0 0 1 -19.41428,26.375399s10.06587,2.183394 25.518052,-6.550182c0,0 -5.750396,15.02175 -23.354961,25.643962c0,0 5.354186,72.554181 -52.83511,119.082306c0,0 -72.592058,67.052028 -165.679941,11.724826c0,0 37.382929,5.130976 71.521221,-21.986777c0,0 -34.502376,-0.36026 -45.639084,-35.174477c0,0 12.485962,0.371177 21.652329,-1.277285c0,0 -38.817851,-4.126615 -39.620979,-51.386177c0,0 13.471133,7.052362 21.020535,6.550182c0,0 -34.770086,-29.03914 -13.74955,-67.237617c0,0 38.004014,48.6351 102.971711,52.215866c0,0 -5.450562,-20.480235 9.230617,-40.611128c11.211666,-15.371093 29.555108,-24.017334 48.112718,-21.015167c9.155659,1.397372 19.392863,5.742326 28.998273,15.731353z"/>
 </g>
</svg>